<mxfile host="app.diagrams.net" modified="2021-02-01T06:17:07.732Z" agent="5.0 (Macintosh; Intel Mac OS X 10_15_1) AppleWebKit/537.36 (KHTML, like Gecko) Chrome/88.0.4324.96 Safari/537.36" etag="QBZ7z1Ns6zb-G0nY47il" version="14.2.7" type="github">
  <diagram id="C5RBs43oDa-KdzZeNtuy" name="Page-1">
    <mxGraphModel dx="2990" dy="2521" grid="1" gridSize="10" guides="1" tooltips="1" connect="1" arrows="1" fold="1" page="1" pageScale="1" pageWidth="827" pageHeight="1169" math="0" shadow="0">
      <root>
        <mxCell id="WIyWlLk6GJQsqaUBKTNV-0" />
        <mxCell id="WIyWlLk6GJQsqaUBKTNV-1" parent="WIyWlLk6GJQsqaUBKTNV-0" />
        <mxCell id="Mt08PbIIcdnvE-Uucdc--0" value="&lt;font style=&quot;font-size: 25px&quot;&gt;项目预算&lt;/font&gt;" style="ellipse;whiteSpace=wrap;html=1;" parent="WIyWlLk6GJQsqaUBKTNV-1" vertex="1">
          <mxGeometry x="870" y="900" width="120" height="80" as="geometry" />
        </mxCell>
        <mxCell id="Mt08PbIIcdnvE-Uucdc--1" value="&lt;font style=&quot;font-size: 25px&quot;&gt;项目&lt;br&gt;负责人&lt;/font&gt;" style="ellipse;whiteSpace=wrap;html=1;" parent="WIyWlLk6GJQsqaUBKTNV-1" vertex="1">
          <mxGeometry x="770" y="670" width="120" height="80" as="geometry" />
        </mxCell>
        <mxCell id="Mt08PbIIcdnvE-Uucdc--2" value="&lt;font style=&quot;font-size: 25px&quot;&gt;路径&lt;/font&gt;" style="ellipse;whiteSpace=wrap;html=1;" parent="WIyWlLk6GJQsqaUBKTNV-1" vertex="1">
          <mxGeometry x="470" y="980" width="120" height="80" as="geometry" />
        </mxCell>
        <mxCell id="Mt08PbIIcdnvE-Uucdc--3" value="&lt;font style=&quot;font-size: 25px&quot;&gt;路径&lt;/font&gt;" style="ellipse;whiteSpace=wrap;html=1;" parent="WIyWlLk6GJQsqaUBKTNV-1" vertex="1">
          <mxGeometry x="590" y="910" width="120" height="80" as="geometry" />
        </mxCell>
        <mxCell id="Mt08PbIIcdnvE-Uucdc--4" value="&lt;font style=&quot;font-size: 25px&quot;&gt;路径&lt;/font&gt;" style="ellipse;whiteSpace=wrap;html=1;" parent="WIyWlLk6GJQsqaUBKTNV-1" vertex="1">
          <mxGeometry x="1340" y="940" width="120" height="80" as="geometry" />
        </mxCell>
        <mxCell id="Mt08PbIIcdnvE-Uucdc--5" value="&lt;font style=&quot;font-size: 25px&quot;&gt;项目来源&lt;/font&gt;" style="ellipse;whiteSpace=wrap;html=1;" parent="WIyWlLk6GJQsqaUBKTNV-1" vertex="1">
          <mxGeometry x="740" y="910" width="120" height="80" as="geometry" />
        </mxCell>
        <mxCell id="Mt08PbIIcdnvE-Uucdc--6" value="&lt;font style=&quot;font-size: 25px&quot;&gt;路径&lt;/font&gt;" style="ellipse;whiteSpace=wrap;html=1;" parent="WIyWlLk6GJQsqaUBKTNV-1" vertex="1">
          <mxGeometry x="320" y="980" width="120" height="80" as="geometry" />
        </mxCell>
        <mxCell id="Mt08PbIIcdnvE-Uucdc--7" value="&lt;font style=&quot;font-size: 25px&quot;&gt;路径&lt;/font&gt;" style="ellipse;whiteSpace=wrap;html=1;" parent="WIyWlLk6GJQsqaUBKTNV-1" vertex="1">
          <mxGeometry x="230" y="900" width="120" height="80" as="geometry" />
        </mxCell>
        <mxCell id="Mt08PbIIcdnvE-Uucdc--8" value="&lt;font style=&quot;font-size: 25px&quot;&gt;项目性质&lt;/font&gt;" style="ellipse;whiteSpace=wrap;html=1;" parent="WIyWlLk6GJQsqaUBKTNV-1" vertex="1">
          <mxGeometry x="910" y="670" width="120" height="80" as="geometry" />
        </mxCell>
        <mxCell id="Mt08PbIIcdnvE-Uucdc--9" value="&lt;font style=&quot;font-size: 25px&quot;&gt;from&lt;/font&gt;" style="ellipse;whiteSpace=wrap;html=1;" parent="WIyWlLk6GJQsqaUBKTNV-1" vertex="1">
          <mxGeometry x="-130" y="160" width="120" height="80" as="geometry" />
        </mxCell>
        <mxCell id="Mt08PbIIcdnvE-Uucdc--10" value="&lt;font style=&quot;font-size: 25px&quot;&gt;uri&lt;/font&gt;" style="ellipse;whiteSpace=wrap;html=1;" parent="WIyWlLk6GJQsqaUBKTNV-1" vertex="1">
          <mxGeometry x="-300" y="270" width="120" height="80" as="geometry" />
        </mxCell>
        <mxCell id="Mt08PbIIcdnvE-Uucdc--11" value="&lt;font style=&quot;font-size: 25px&quot;&gt;说明&lt;/font&gt;" style="ellipse;whiteSpace=wrap;html=1;" parent="WIyWlLk6GJQsqaUBKTNV-1" vertex="1">
          <mxGeometry x="530" y="130" width="120" height="80" as="geometry" />
        </mxCell>
        <mxCell id="Mt08PbIIcdnvE-Uucdc--12" value="&lt;font style=&quot;font-size: 25px&quot;&gt;名称&lt;/font&gt;" style="ellipse;whiteSpace=wrap;html=1;" parent="WIyWlLk6GJQsqaUBKTNV-1" vertex="1">
          <mxGeometry x="310" y="650" width="120" height="80" as="geometry" />
        </mxCell>
        <mxCell id="Mt08PbIIcdnvE-Uucdc--13" value="&lt;font style=&quot;font-size: 25px&quot;&gt;负责人&lt;/font&gt;" style="ellipse;whiteSpace=wrap;html=1;" parent="WIyWlLk6GJQsqaUBKTNV-1" vertex="1">
          <mxGeometry x="330" y="130" width="120" height="80" as="geometry" />
        </mxCell>
        <mxCell id="Mt08PbIIcdnvE-Uucdc--14" value="&lt;font style=&quot;font-size: 25px&quot;&gt;路径&lt;/font&gt;" style="ellipse;whiteSpace=wrap;html=1;" parent="WIyWlLk6GJQsqaUBKTNV-1" vertex="1">
          <mxGeometry x="220" y="80" width="120" height="80" as="geometry" />
        </mxCell>
        <mxCell id="Mt08PbIIcdnvE-Uucdc--15" value="&lt;font style=&quot;font-size: 25px&quot;&gt;标签&lt;/font&gt;" style="ellipse;whiteSpace=wrap;html=1;" parent="WIyWlLk6GJQsqaUBKTNV-1" vertex="1">
          <mxGeometry x="80" y="70" width="120" height="80" as="geometry" />
        </mxCell>
        <mxCell id="Mt08PbIIcdnvE-Uucdc--16" value="&lt;font style=&quot;font-size: 25px&quot;&gt;版本&lt;/font&gt;" style="ellipse;whiteSpace=wrap;html=1;" parent="WIyWlLk6GJQsqaUBKTNV-1" vertex="1">
          <mxGeometry x="70" y="160" width="120" height="80" as="geometry" />
        </mxCell>
        <mxCell id="Mt08PbIIcdnvE-Uucdc--17" value="&lt;font style=&quot;font-size: 25px&quot;&gt;可见性&lt;/font&gt;" style="ellipse;whiteSpace=wrap;html=1;" parent="WIyWlLk6GJQsqaUBKTNV-1" vertex="1">
          <mxGeometry x="130" y="240" width="120" height="80" as="geometry" />
        </mxCell>
        <mxCell id="Mt08PbIIcdnvE-Uucdc--18" value="&lt;font style=&quot;font-size: 25px&quot;&gt;目录类别&lt;/font&gt;" style="ellipse;whiteSpace=wrap;html=1;" parent="WIyWlLk6GJQsqaUBKTNV-1" vertex="1">
          <mxGeometry x="240" y="540" width="120" height="80" as="geometry" />
        </mxCell>
        <mxCell id="Mt08PbIIcdnvE-Uucdc--19" value="&lt;span style=&quot;font-size: 25px&quot;&gt;目录深度&lt;/span&gt;" style="ellipse;whiteSpace=wrap;html=1;" parent="WIyWlLk6GJQsqaUBKTNV-1" vertex="1">
          <mxGeometry x="60" y="465" width="120" height="80" as="geometry" />
        </mxCell>
        <mxCell id="Mt08PbIIcdnvE-Uucdc--20" value="&lt;font style=&quot;font-size: 25px&quot;&gt;标记&lt;/font&gt;" style="ellipse;whiteSpace=wrap;html=1;" parent="WIyWlLk6GJQsqaUBKTNV-1" vertex="1">
          <mxGeometry x="640" y="545" width="120" height="80" as="geometry" />
        </mxCell>
        <mxCell id="Mt08PbIIcdnvE-Uucdc--21" value="&lt;font style=&quot;font-size: 25px&quot;&gt;产生日期&lt;/font&gt;" style="ellipse;whiteSpace=wrap;html=1;" parent="WIyWlLk6GJQsqaUBKTNV-1" vertex="1">
          <mxGeometry x="130" y="380" width="120" height="80" as="geometry" />
        </mxCell>
        <mxCell id="Mt08PbIIcdnvE-Uucdc--22" value="&lt;font style=&quot;font-size: 25px&quot;&gt;附件&lt;/font&gt;" style="ellipse;whiteSpace=wrap;html=1;" parent="WIyWlLk6GJQsqaUBKTNV-1" vertex="1">
          <mxGeometry x="80" y="560" width="120" height="80" as="geometry" />
        </mxCell>
        <mxCell id="Mt08PbIIcdnvE-Uucdc--23" value="&lt;font style=&quot;font-size: 25px&quot;&gt;类型&lt;/font&gt;" style="ellipse;whiteSpace=wrap;html=1;" parent="WIyWlLk6GJQsqaUBKTNV-1" vertex="1">
          <mxGeometry x="770" y="260" width="120" height="80" as="geometry" />
        </mxCell>
        <mxCell id="Mt08PbIIcdnvE-Uucdc--24" value="&lt;font style=&quot;font-size: 25px&quot;&gt;审核&lt;/font&gt;" style="ellipse;whiteSpace=wrap;html=1;" parent="WIyWlLk6GJQsqaUBKTNV-1" vertex="1">
          <mxGeometry x="780" y="560" width="120" height="80" as="geometry" />
        </mxCell>
        <mxCell id="Mt08PbIIcdnvE-Uucdc--25" value="&lt;font style=&quot;font-size: 25px&quot;&gt;编写&lt;/font&gt;" style="ellipse;whiteSpace=wrap;html=1;" parent="WIyWlLk6GJQsqaUBKTNV-1" vertex="1">
          <mxGeometry x="600" y="650" width="120" height="80" as="geometry" />
        </mxCell>
        <mxCell id="Mt08PbIIcdnvE-Uucdc--26" value="&lt;font style=&quot;font-size: 25px&quot;&gt;校核&lt;/font&gt;" style="ellipse;whiteSpace=wrap;html=1;" parent="WIyWlLk6GJQsqaUBKTNV-1" vertex="1">
          <mxGeometry x="640" y="80" width="120" height="80" as="geometry" />
        </mxCell>
        <mxCell id="Mt08PbIIcdnvE-Uucdc--27" value="&lt;font style=&quot;font-size: 25px&quot;&gt;关键词&lt;/font&gt;" style="ellipse;whiteSpace=wrap;html=1;" parent="WIyWlLk6GJQsqaUBKTNV-1" vertex="1">
          <mxGeometry x="780" y="70" width="120" height="80" as="geometry" />
        </mxCell>
        <mxCell id="Mt08PbIIcdnvE-Uucdc--28" value="&lt;font style=&quot;font-size: 25px&quot;&gt;创建时间&lt;/font&gt;" style="ellipse;whiteSpace=wrap;html=1;" parent="WIyWlLk6GJQsqaUBKTNV-1" vertex="1">
          <mxGeometry x="770" y="360" width="120" height="80" as="geometry" />
        </mxCell>
        <mxCell id="Mt08PbIIcdnvE-Uucdc--29" value="&lt;font style=&quot;font-size: 25px&quot;&gt;更新时间&lt;/font&gt;" style="ellipse;whiteSpace=wrap;html=1;" parent="WIyWlLk6GJQsqaUBKTNV-1" vertex="1">
          <mxGeometry x="770" y="460" width="120" height="80" as="geometry" />
        </mxCell>
        <mxCell id="Mt08PbIIcdnvE-Uucdc--30" value="&lt;span style=&quot;font-size: 25px&quot;&gt;编号&lt;/span&gt;" style="ellipse;whiteSpace=wrap;html=1;" parent="WIyWlLk6GJQsqaUBKTNV-1" vertex="1">
          <mxGeometry x="770" y="170" width="120" height="80" as="geometry" />
        </mxCell>
        <mxCell id="Mt08PbIIcdnvE-Uucdc--32" value="&lt;span style=&quot;font-size: 25px&quot;&gt;&amp;nbsp;目录&lt;br&gt;(Directory)&lt;br&gt;&lt;/span&gt;" style="rounded=0;whiteSpace=wrap;html=1;" parent="WIyWlLk6GJQsqaUBKTNV-1" vertex="1">
          <mxGeometry x="440" y="50" width="120" height="60" as="geometry" />
        </mxCell>
        <mxCell id="Mt08PbIIcdnvE-Uucdc--33" value="&lt;font style=&quot;font-size: 25px&quot;&gt;路径&lt;/font&gt;" style="rounded=0;whiteSpace=wrap;html=1;" parent="WIyWlLk6GJQsqaUBKTNV-1" vertex="1">
          <mxGeometry x="1090" y="930" width="120" height="60" as="geometry" />
        </mxCell>
        <mxCell id="Mt08PbIIcdnvE-Uucdc--34" value="&lt;font style=&quot;font-size: 25px&quot;&gt;路径&lt;/font&gt;" style="rounded=0;whiteSpace=wrap;html=1;" parent="WIyWlLk6GJQsqaUBKTNV-1" vertex="1">
          <mxGeometry x="1090" y="850" width="120" height="60" as="geometry" />
        </mxCell>
        <mxCell id="Mt08PbIIcdnvE-Uucdc--35" value="&lt;font style=&quot;font-size: 25px&quot;&gt;路径&lt;/font&gt;" style="rounded=0;whiteSpace=wrap;html=1;" parent="WIyWlLk6GJQsqaUBKTNV-1" vertex="1">
          <mxGeometry x="1090" y="770" width="120" height="60" as="geometry" />
        </mxCell>
        <mxCell id="Mt08PbIIcdnvE-Uucdc--36" value="&lt;font style=&quot;font-size: 25px&quot;&gt;路径&lt;/font&gt;" style="rounded=0;whiteSpace=wrap;html=1;" parent="WIyWlLk6GJQsqaUBKTNV-1" vertex="1">
          <mxGeometry x="1090" y="690" width="120" height="60" as="geometry" />
        </mxCell>
        <mxCell id="Mt08PbIIcdnvE-Uucdc--37" value="&lt;span style=&quot;font-size: 25px&quot;&gt;确定的目录信息&lt;br&gt;(fixedDirectoryInfo)&lt;br&gt;&lt;/span&gt;" style="rounded=0;whiteSpace=wrap;html=1;" parent="WIyWlLk6GJQsqaUBKTNV-1" vertex="1">
          <mxGeometry x="587" y="790" width="240" height="60" as="geometry" />
        </mxCell>
        <mxCell id="Mt08PbIIcdnvE-Uucdc--38" value="&lt;font style=&quot;font-size: 25px&quot;&gt;路径信息&lt;br&gt;(PathInfo)&lt;br&gt;&lt;/font&gt;" style="rounded=0;whiteSpace=wrap;html=1;" parent="WIyWlLk6GJQsqaUBKTNV-1" vertex="1">
          <mxGeometry x="394" y="880" width="120" height="60" as="geometry" />
        </mxCell>
        <mxCell id="Mt08PbIIcdnvE-Uucdc--39" value="&lt;font style=&quot;font-size: 25px&quot;&gt;文件&lt;br&gt;(File)&lt;/font&gt;" style="rounded=0;whiteSpace=wrap;html=1;" parent="WIyWlLk6GJQsqaUBKTNV-1" vertex="1">
          <mxGeometry x="-130" y="280" width="120" height="60" as="geometry" />
        </mxCell>
        <mxCell id="Mt08PbIIcdnvE-Uucdc--40" value="&lt;font style=&quot;font-size: 25px&quot;&gt;项目(Project)&lt;/font&gt;" style="rounded=0;whiteSpace=wrap;html=1;" parent="WIyWlLk6GJQsqaUBKTNV-1" vertex="1">
          <mxGeometry x="-130" y="360" width="120" height="60" as="geometry" />
        </mxCell>
        <mxCell id="Mt08PbIIcdnvE-Uucdc--41" value="&lt;font style=&quot;font-size: 25px&quot;&gt;路径&lt;/font&gt;" style="rounded=0;whiteSpace=wrap;html=1;" parent="WIyWlLk6GJQsqaUBKTNV-1" vertex="1">
          <mxGeometry x="440" y="320" width="120" height="60" as="geometry" />
        </mxCell>
        <mxCell id="Mt08PbIIcdnvE-Uucdc--52" value="" style="endArrow=none;html=1;entryX=0.25;entryY=0;entryDx=0;entryDy=0;exitX=0.5;exitY=1;exitDx=0;exitDy=0;" parent="WIyWlLk6GJQsqaUBKTNV-1" source="Mt08PbIIcdnvE-Uucdc--13" target="Mt08PbIIcdnvE-Uucdc--41" edge="1">
          <mxGeometry width="50" height="50" relative="1" as="geometry">
            <mxPoint x="360" y="430" as="sourcePoint" />
            <mxPoint x="410" y="380" as="targetPoint" />
          </mxGeometry>
        </mxCell>
        <mxCell id="Mt08PbIIcdnvE-Uucdc--53" value="" style="endArrow=none;html=1;entryX=0.5;entryY=1;entryDx=0;entryDy=0;exitX=0;exitY=0;exitDx=0;exitDy=0;" parent="WIyWlLk6GJQsqaUBKTNV-1" source="Mt08PbIIcdnvE-Uucdc--41" target="Mt08PbIIcdnvE-Uucdc--14" edge="1">
          <mxGeometry width="50" height="50" relative="1" as="geometry">
            <mxPoint x="360" y="430" as="sourcePoint" />
            <mxPoint x="410" y="380" as="targetPoint" />
          </mxGeometry>
        </mxCell>
        <mxCell id="Mt08PbIIcdnvE-Uucdc--54" value="" style="endArrow=none;html=1;exitX=0.5;exitY=0;exitDx=0;exitDy=0;entryX=0.25;entryY=1;entryDx=0;entryDy=0;" parent="WIyWlLk6GJQsqaUBKTNV-1" source="Mt08PbIIcdnvE-Uucdc--12" target="Mt08PbIIcdnvE-Uucdc--41" edge="1">
          <mxGeometry width="50" height="50" relative="1" as="geometry">
            <mxPoint x="360" y="430" as="sourcePoint" />
            <mxPoint x="410" y="380" as="targetPoint" />
          </mxGeometry>
        </mxCell>
        <mxCell id="Mt08PbIIcdnvE-Uucdc--55" value="" style="endArrow=none;html=1;exitX=0.5;exitY=0;exitDx=0;exitDy=0;entryX=0;entryY=1;entryDx=0;entryDy=0;" parent="WIyWlLk6GJQsqaUBKTNV-1" source="Mt08PbIIcdnvE-Uucdc--18" target="Mt08PbIIcdnvE-Uucdc--41" edge="1">
          <mxGeometry width="50" height="50" relative="1" as="geometry">
            <mxPoint x="360" y="430" as="sourcePoint" />
            <mxPoint x="410" y="380" as="targetPoint" />
          </mxGeometry>
        </mxCell>
        <mxCell id="Mt08PbIIcdnvE-Uucdc--56" value="" style="endArrow=none;html=1;exitX=1;exitY=0;exitDx=0;exitDy=0;entryX=0;entryY=1;entryDx=0;entryDy=0;" parent="WIyWlLk6GJQsqaUBKTNV-1" source="Mt08PbIIcdnvE-Uucdc--22" target="Mt08PbIIcdnvE-Uucdc--41" edge="1">
          <mxGeometry width="50" height="50" relative="1" as="geometry">
            <mxPoint x="360" y="430" as="sourcePoint" />
            <mxPoint x="410" y="380" as="targetPoint" />
          </mxGeometry>
        </mxCell>
        <mxCell id="Mt08PbIIcdnvE-Uucdc--57" value="" style="endArrow=none;html=1;exitX=1;exitY=0.5;exitDx=0;exitDy=0;entryX=0;entryY=1;entryDx=0;entryDy=0;" parent="WIyWlLk6GJQsqaUBKTNV-1" source="Mt08PbIIcdnvE-Uucdc--19" target="Mt08PbIIcdnvE-Uucdc--41" edge="1">
          <mxGeometry width="50" height="50" relative="1" as="geometry">
            <mxPoint x="360" y="430" as="sourcePoint" />
            <mxPoint x="410" y="380" as="targetPoint" />
          </mxGeometry>
        </mxCell>
        <mxCell id="Mt08PbIIcdnvE-Uucdc--58" value="" style="endArrow=none;html=1;exitX=1;exitY=0.5;exitDx=0;exitDy=0;entryX=0;entryY=0.5;entryDx=0;entryDy=0;" parent="WIyWlLk6GJQsqaUBKTNV-1" source="Mt08PbIIcdnvE-Uucdc--21" target="Mt08PbIIcdnvE-Uucdc--41" edge="1">
          <mxGeometry width="50" height="50" relative="1" as="geometry">
            <mxPoint x="360" y="430" as="sourcePoint" />
            <mxPoint x="420" y="370" as="targetPoint" />
          </mxGeometry>
        </mxCell>
        <mxCell id="Mt08PbIIcdnvE-Uucdc--59" value="" style="endArrow=none;html=1;exitX=1;exitY=0.5;exitDx=0;exitDy=0;entryX=0;entryY=0.5;entryDx=0;entryDy=0;" parent="WIyWlLk6GJQsqaUBKTNV-1" source="Mt08PbIIcdnvE-Uucdc--17" target="Mt08PbIIcdnvE-Uucdc--41" edge="1">
          <mxGeometry width="50" height="50" relative="1" as="geometry">
            <mxPoint x="360" y="430" as="sourcePoint" />
            <mxPoint x="410" y="380" as="targetPoint" />
          </mxGeometry>
        </mxCell>
        <mxCell id="Mt08PbIIcdnvE-Uucdc--60" value="" style="endArrow=none;html=1;exitX=1.008;exitY=0.6;exitDx=0;exitDy=0;exitPerimeter=0;entryX=0;entryY=0;entryDx=0;entryDy=0;" parent="WIyWlLk6GJQsqaUBKTNV-1" source="Mt08PbIIcdnvE-Uucdc--16" target="Mt08PbIIcdnvE-Uucdc--41" edge="1">
          <mxGeometry width="50" height="50" relative="1" as="geometry">
            <mxPoint x="360" y="430" as="sourcePoint" />
            <mxPoint x="410" y="380" as="targetPoint" />
          </mxGeometry>
        </mxCell>
        <mxCell id="Mt08PbIIcdnvE-Uucdc--61" value="" style="endArrow=none;html=1;exitX=1;exitY=1;exitDx=0;exitDy=0;entryX=0;entryY=0;entryDx=0;entryDy=0;" parent="WIyWlLk6GJQsqaUBKTNV-1" source="Mt08PbIIcdnvE-Uucdc--15" target="Mt08PbIIcdnvE-Uucdc--41" edge="1">
          <mxGeometry width="50" height="50" relative="1" as="geometry">
            <mxPoint x="360" y="430" as="sourcePoint" />
            <mxPoint x="410" y="380" as="targetPoint" />
          </mxGeometry>
        </mxCell>
        <mxCell id="Mt08PbIIcdnvE-Uucdc--62" value="" style="endArrow=none;html=1;exitX=0;exitY=0.5;exitDx=0;exitDy=0;" parent="WIyWlLk6GJQsqaUBKTNV-1" source="Mt08PbIIcdnvE-Uucdc--30" edge="1">
          <mxGeometry width="50" height="50" relative="1" as="geometry">
            <mxPoint x="470" y="430" as="sourcePoint" />
            <mxPoint x="560" y="320" as="targetPoint" />
          </mxGeometry>
        </mxCell>
        <mxCell id="Mt08PbIIcdnvE-Uucdc--63" value="" style="endArrow=none;html=1;exitX=0;exitY=1;exitDx=0;exitDy=0;entryX=1;entryY=0;entryDx=0;entryDy=0;" parent="WIyWlLk6GJQsqaUBKTNV-1" source="Mt08PbIIcdnvE-Uucdc--27" target="Mt08PbIIcdnvE-Uucdc--41" edge="1">
          <mxGeometry width="50" height="50" relative="1" as="geometry">
            <mxPoint x="470" y="430" as="sourcePoint" />
            <mxPoint x="520" y="380" as="targetPoint" />
          </mxGeometry>
        </mxCell>
        <mxCell id="Mt08PbIIcdnvE-Uucdc--64" value="" style="endArrow=none;html=1;exitX=0.45;exitY=0.988;exitDx=0;exitDy=0;exitPerimeter=0;entryX=1;entryY=0;entryDx=0;entryDy=0;" parent="WIyWlLk6GJQsqaUBKTNV-1" source="Mt08PbIIcdnvE-Uucdc--26" target="Mt08PbIIcdnvE-Uucdc--41" edge="1">
          <mxGeometry width="50" height="50" relative="1" as="geometry">
            <mxPoint x="470" y="430" as="sourcePoint" />
            <mxPoint x="520" y="380" as="targetPoint" />
          </mxGeometry>
        </mxCell>
        <mxCell id="Mt08PbIIcdnvE-Uucdc--65" value="" style="endArrow=none;html=1;exitX=0.5;exitY=1;exitDx=0;exitDy=0;entryX=0.75;entryY=0;entryDx=0;entryDy=0;" parent="WIyWlLk6GJQsqaUBKTNV-1" source="Mt08PbIIcdnvE-Uucdc--11" target="Mt08PbIIcdnvE-Uucdc--41" edge="1">
          <mxGeometry width="50" height="50" relative="1" as="geometry">
            <mxPoint x="470" y="430" as="sourcePoint" />
            <mxPoint x="520" y="380" as="targetPoint" />
          </mxGeometry>
        </mxCell>
        <mxCell id="Mt08PbIIcdnvE-Uucdc--66" value="" style="endArrow=none;html=1;exitX=0;exitY=0;exitDx=0;exitDy=0;entryX=1;entryY=1;entryDx=0;entryDy=0;" parent="WIyWlLk6GJQsqaUBKTNV-1" source="Mt08PbIIcdnvE-Uucdc--24" target="Mt08PbIIcdnvE-Uucdc--41" edge="1">
          <mxGeometry width="50" height="50" relative="1" as="geometry">
            <mxPoint x="470" y="430" as="sourcePoint" />
            <mxPoint x="520" y="380" as="targetPoint" />
          </mxGeometry>
        </mxCell>
        <mxCell id="Mt08PbIIcdnvE-Uucdc--67" value="" style="endArrow=none;html=1;exitX=0;exitY=0.5;exitDx=0;exitDy=0;entryX=1;entryY=1;entryDx=0;entryDy=0;" parent="WIyWlLk6GJQsqaUBKTNV-1" source="Mt08PbIIcdnvE-Uucdc--29" target="Mt08PbIIcdnvE-Uucdc--41" edge="1">
          <mxGeometry width="50" height="50" relative="1" as="geometry">
            <mxPoint x="470" y="430" as="sourcePoint" />
            <mxPoint x="520" y="380" as="targetPoint" />
          </mxGeometry>
        </mxCell>
        <mxCell id="Mt08PbIIcdnvE-Uucdc--68" value="" style="endArrow=none;html=1;exitX=0.5;exitY=0;exitDx=0;exitDy=0;entryX=1;entryY=1;entryDx=0;entryDy=0;" parent="WIyWlLk6GJQsqaUBKTNV-1" source="Mt08PbIIcdnvE-Uucdc--20" target="Mt08PbIIcdnvE-Uucdc--41" edge="1">
          <mxGeometry width="50" height="50" relative="1" as="geometry">
            <mxPoint x="470" y="430" as="sourcePoint" />
            <mxPoint x="520" y="380" as="targetPoint" />
          </mxGeometry>
        </mxCell>
        <mxCell id="Mt08PbIIcdnvE-Uucdc--69" value="" style="endArrow=none;html=1;entryX=0.75;entryY=1;entryDx=0;entryDy=0;" parent="WIyWlLk6GJQsqaUBKTNV-1" source="Mt08PbIIcdnvE-Uucdc--25" target="Mt08PbIIcdnvE-Uucdc--41" edge="1">
          <mxGeometry width="50" height="50" relative="1" as="geometry">
            <mxPoint x="470" y="430" as="sourcePoint" />
            <mxPoint x="520" y="380" as="targetPoint" />
          </mxGeometry>
        </mxCell>
        <mxCell id="Mt08PbIIcdnvE-Uucdc--70" value="" style="endArrow=none;html=1;exitX=0;exitY=0.5;exitDx=0;exitDy=0;entryX=1;entryY=0.25;entryDx=0;entryDy=0;" parent="WIyWlLk6GJQsqaUBKTNV-1" source="Mt08PbIIcdnvE-Uucdc--23" target="Mt08PbIIcdnvE-Uucdc--41" edge="1">
          <mxGeometry width="50" height="50" relative="1" as="geometry">
            <mxPoint x="470" y="430" as="sourcePoint" />
            <mxPoint x="520" y="380" as="targetPoint" />
          </mxGeometry>
        </mxCell>
        <mxCell id="Mt08PbIIcdnvE-Uucdc--71" value="" style="endArrow=none;html=1;exitX=0;exitY=0.5;exitDx=0;exitDy=0;entryX=1;entryY=0.5;entryDx=0;entryDy=0;" parent="WIyWlLk6GJQsqaUBKTNV-1" source="Mt08PbIIcdnvE-Uucdc--28" target="Mt08PbIIcdnvE-Uucdc--41" edge="1">
          <mxGeometry width="50" height="50" relative="1" as="geometry">
            <mxPoint x="470" y="430" as="sourcePoint" />
            <mxPoint x="520" y="380" as="targetPoint" />
          </mxGeometry>
        </mxCell>
        <mxCell id="Mt08PbIIcdnvE-Uucdc--72" value="" style="endArrow=none;html=1;exitX=0;exitY=0.5;exitDx=0;exitDy=0;entryX=1;entryY=0.5;entryDx=0;entryDy=0;" parent="WIyWlLk6GJQsqaUBKTNV-1" source="Mt08PbIIcdnvE-Uucdc--41" target="Mt08PbIIcdnvE-Uucdc--40" edge="1">
          <mxGeometry width="50" height="50" relative="1" as="geometry">
            <mxPoint x="470" y="430" as="sourcePoint" />
            <mxPoint x="40" y="340" as="targetPoint" />
          </mxGeometry>
        </mxCell>
        <mxCell id="Mt08PbIIcdnvE-Uucdc--74" value="" style="endArrow=none;html=1;entryX=1;entryY=0.5;entryDx=0;entryDy=0;exitX=0;exitY=0.5;exitDx=0;exitDy=0;" parent="WIyWlLk6GJQsqaUBKTNV-1" source="Mt08PbIIcdnvE-Uucdc--39" target="Mt08PbIIcdnvE-Uucdc--10" edge="1">
          <mxGeometry width="50" height="50" relative="1" as="geometry">
            <mxPoint x="30" y="400" as="sourcePoint" />
            <mxPoint x="80" y="350" as="targetPoint" />
          </mxGeometry>
        </mxCell>
        <mxCell id="Mt08PbIIcdnvE-Uucdc--75" value="" style="endArrow=none;html=1;entryX=0.5;entryY=1;entryDx=0;entryDy=0;exitX=0.5;exitY=0;exitDx=0;exitDy=0;" parent="WIyWlLk6GJQsqaUBKTNV-1" source="Mt08PbIIcdnvE-Uucdc--39" target="Mt08PbIIcdnvE-Uucdc--9" edge="1">
          <mxGeometry width="50" height="50" relative="1" as="geometry">
            <mxPoint x="30" y="400" as="sourcePoint" />
            <mxPoint x="80" y="350" as="targetPoint" />
          </mxGeometry>
        </mxCell>
        <mxCell id="Mt08PbIIcdnvE-Uucdc--76" value="" style="endArrow=none;html=1;entryX=1;entryY=0.5;entryDx=0;entryDy=0;exitX=0;exitY=0.5;exitDx=0;exitDy=0;" parent="WIyWlLk6GJQsqaUBKTNV-1" source="Mt08PbIIcdnvE-Uucdc--41" target="Mt08PbIIcdnvE-Uucdc--39" edge="1">
          <mxGeometry width="50" height="50" relative="1" as="geometry">
            <mxPoint x="30" y="400" as="sourcePoint" />
            <mxPoint x="80" y="350" as="targetPoint" />
          </mxGeometry>
        </mxCell>
        <mxCell id="Mt08PbIIcdnvE-Uucdc--77" value="&lt;font style=&quot;font-size: 25px&quot;&gt;关联&lt;/font&gt;" style="rhombus;whiteSpace=wrap;html=1;" parent="WIyWlLk6GJQsqaUBKTNV-1" vertex="1">
          <mxGeometry x="414" y="570" width="80" height="80" as="geometry" />
        </mxCell>
        <mxCell id="Mt08PbIIcdnvE-Uucdc--78" value="&lt;font style=&quot;font-size: 25px&quot;&gt;关联&lt;/font&gt;" style="rhombus;whiteSpace=wrap;html=1;" parent="WIyWlLk6GJQsqaUBKTNV-1" vertex="1">
          <mxGeometry x="520" y="570" width="80" height="80" as="geometry" />
        </mxCell>
        <mxCell id="Mt08PbIIcdnvE-Uucdc--79" value="" style="endArrow=none;html=1;entryX=0.5;entryY=1;entryDx=0;entryDy=0;exitX=0.5;exitY=0;exitDx=0;exitDy=0;" parent="WIyWlLk6GJQsqaUBKTNV-1" source="Mt08PbIIcdnvE-Uucdc--78" target="Mt08PbIIcdnvE-Uucdc--41" edge="1">
          <mxGeometry width="50" height="50" relative="1" as="geometry">
            <mxPoint x="430" y="560" as="sourcePoint" />
            <mxPoint x="480" y="510" as="targetPoint" />
          </mxGeometry>
        </mxCell>
        <mxCell id="Mt08PbIIcdnvE-Uucdc--80" value="" style="endArrow=none;html=1;entryX=0.5;entryY=1;entryDx=0;entryDy=0;exitX=0.5;exitY=0;exitDx=0;exitDy=0;" parent="WIyWlLk6GJQsqaUBKTNV-1" source="Mt08PbIIcdnvE-Uucdc--77" target="Mt08PbIIcdnvE-Uucdc--41" edge="1">
          <mxGeometry width="50" height="50" relative="1" as="geometry">
            <mxPoint x="430" y="560" as="sourcePoint" />
            <mxPoint x="480" y="510" as="targetPoint" />
          </mxGeometry>
        </mxCell>
        <mxCell id="Mt08PbIIcdnvE-Uucdc--81" value="" style="endArrow=none;html=1;entryX=0.5;entryY=1;entryDx=0;entryDy=0;exitX=0;exitY=0;exitDx=0;exitDy=0;" parent="WIyWlLk6GJQsqaUBKTNV-1" source="Mt08PbIIcdnvE-Uucdc--37" target="Mt08PbIIcdnvE-Uucdc--78" edge="1">
          <mxGeometry width="50" height="50" relative="1" as="geometry">
            <mxPoint x="550" y="770" as="sourcePoint" />
            <mxPoint x="480" y="510" as="targetPoint" />
          </mxGeometry>
        </mxCell>
        <mxCell id="Mt08PbIIcdnvE-Uucdc--82" value="" style="endArrow=none;html=1;exitX=0.5;exitY=1;exitDx=0;exitDy=0;entryX=0.5;entryY=0;entryDx=0;entryDy=0;" parent="WIyWlLk6GJQsqaUBKTNV-1" source="Mt08PbIIcdnvE-Uucdc--77" target="Mt08PbIIcdnvE-Uucdc--38" edge="1">
          <mxGeometry width="50" height="50" relative="1" as="geometry">
            <mxPoint x="430" y="560" as="sourcePoint" />
            <mxPoint x="470" y="770" as="targetPoint" />
          </mxGeometry>
        </mxCell>
        <mxCell id="Mt08PbIIcdnvE-Uucdc--83" value="" style="endArrow=none;html=1;entryX=1;entryY=0.5;entryDx=0;entryDy=0;exitX=0;exitY=0.5;exitDx=0;exitDy=0;" parent="WIyWlLk6GJQsqaUBKTNV-1" source="Mt08PbIIcdnvE-Uucdc--3" target="Mt08PbIIcdnvE-Uucdc--38" edge="1">
          <mxGeometry width="50" height="50" relative="1" as="geometry">
            <mxPoint x="320" y="1040" as="sourcePoint" />
            <mxPoint x="370" y="990" as="targetPoint" />
          </mxGeometry>
        </mxCell>
        <mxCell id="Mt08PbIIcdnvE-Uucdc--84" value="" style="endArrow=none;html=1;exitX=0.75;exitY=1;exitDx=0;exitDy=0;entryX=0.5;entryY=0;entryDx=0;entryDy=0;" parent="WIyWlLk6GJQsqaUBKTNV-1" source="Mt08PbIIcdnvE-Uucdc--38" target="Mt08PbIIcdnvE-Uucdc--2" edge="1">
          <mxGeometry width="50" height="50" relative="1" as="geometry">
            <mxPoint x="320" y="1040" as="sourcePoint" />
            <mxPoint x="370" y="990" as="targetPoint" />
          </mxGeometry>
        </mxCell>
        <mxCell id="Mt08PbIIcdnvE-Uucdc--85" value="" style="endArrow=none;html=1;exitX=0.5;exitY=0;exitDx=0;exitDy=0;entryX=0.25;entryY=1;entryDx=0;entryDy=0;" parent="WIyWlLk6GJQsqaUBKTNV-1" source="Mt08PbIIcdnvE-Uucdc--6" target="Mt08PbIIcdnvE-Uucdc--38" edge="1">
          <mxGeometry width="50" height="50" relative="1" as="geometry">
            <mxPoint x="320" y="1040" as="sourcePoint" />
            <mxPoint x="370" y="990" as="targetPoint" />
          </mxGeometry>
        </mxCell>
        <mxCell id="Mt08PbIIcdnvE-Uucdc--86" value="" style="endArrow=none;html=1;exitX=1;exitY=0.5;exitDx=0;exitDy=0;entryX=0;entryY=0.5;entryDx=0;entryDy=0;" parent="WIyWlLk6GJQsqaUBKTNV-1" source="Mt08PbIIcdnvE-Uucdc--7" target="Mt08PbIIcdnvE-Uucdc--38" edge="1">
          <mxGeometry width="50" height="50" relative="1" as="geometry">
            <mxPoint x="320" y="1040" as="sourcePoint" />
            <mxPoint x="370" y="990" as="targetPoint" />
          </mxGeometry>
        </mxCell>
        <mxCell id="Mt08PbIIcdnvE-Uucdc--87" value="" style="endArrow=none;html=1;exitX=0.75;exitY=0;exitDx=0;exitDy=0;entryX=0;entryY=1;entryDx=0;entryDy=0;" parent="WIyWlLk6GJQsqaUBKTNV-1" source="Mt08PbIIcdnvE-Uucdc--37" target="Mt08PbIIcdnvE-Uucdc--1" edge="1">
          <mxGeometry width="50" height="50" relative="1" as="geometry">
            <mxPoint x="990" y="920" as="sourcePoint" />
            <mxPoint x="1040" y="870" as="targetPoint" />
          </mxGeometry>
        </mxCell>
        <mxCell id="Mt08PbIIcdnvE-Uucdc--88" value="" style="endArrow=none;html=1;exitX=1;exitY=0.5;exitDx=0;exitDy=0;entryX=0;entryY=1;entryDx=0;entryDy=0;" parent="WIyWlLk6GJQsqaUBKTNV-1" source="Mt08PbIIcdnvE-Uucdc--37" target="Mt08PbIIcdnvE-Uucdc--8" edge="1">
          <mxGeometry width="50" height="50" relative="1" as="geometry">
            <mxPoint x="990" y="920" as="sourcePoint" />
            <mxPoint x="1040" y="870" as="targetPoint" />
          </mxGeometry>
        </mxCell>
        <mxCell id="Mt08PbIIcdnvE-Uucdc--89" value="" style="endArrow=none;html=1;exitX=0;exitY=0;exitDx=0;exitDy=0;entryX=1;entryY=1;entryDx=0;entryDy=0;" parent="WIyWlLk6GJQsqaUBKTNV-1" source="Mt08PbIIcdnvE-Uucdc--0" target="Mt08PbIIcdnvE-Uucdc--37" edge="1">
          <mxGeometry width="50" height="50" relative="1" as="geometry">
            <mxPoint x="990" y="920" as="sourcePoint" />
            <mxPoint x="1040" y="870" as="targetPoint" />
          </mxGeometry>
        </mxCell>
        <mxCell id="Mt08PbIIcdnvE-Uucdc--90" value="" style="endArrow=none;html=1;exitX=0.5;exitY=0;exitDx=0;exitDy=0;entryX=0.75;entryY=1;entryDx=0;entryDy=0;" parent="WIyWlLk6GJQsqaUBKTNV-1" source="Mt08PbIIcdnvE-Uucdc--5" target="Mt08PbIIcdnvE-Uucdc--37" edge="1">
          <mxGeometry width="50" height="50" relative="1" as="geometry">
            <mxPoint x="990" y="920" as="sourcePoint" />
            <mxPoint x="1040" y="870" as="targetPoint" />
          </mxGeometry>
        </mxCell>
        <mxCell id="Mt08PbIIcdnvE-Uucdc--91" value="" style="endArrow=none;html=1;exitX=0.5;exitY=0;exitDx=0;exitDy=0;entryX=0.5;entryY=1;entryDx=0;entryDy=0;" parent="WIyWlLk6GJQsqaUBKTNV-1" source="Mt08PbIIcdnvE-Uucdc--92" target="Mt08PbIIcdnvE-Uucdc--32" edge="1">
          <mxGeometry width="50" height="50" relative="1" as="geometry">
            <mxPoint x="430" y="400" as="sourcePoint" />
            <mxPoint x="480" y="350" as="targetPoint" />
          </mxGeometry>
        </mxCell>
        <mxCell id="Mt08PbIIcdnvE-Uucdc--92" value="&lt;font style=&quot;font-size: 25px&quot;&gt;关联&lt;/font&gt;" style="rhombus;whiteSpace=wrap;html=1;" parent="WIyWlLk6GJQsqaUBKTNV-1" vertex="1">
          <mxGeometry x="480" y="200" width="80" height="80" as="geometry" />
        </mxCell>
        <mxCell id="Mt08PbIIcdnvE-Uucdc--93" value="" style="endArrow=classic;html=1;exitX=0.25;exitY=1;exitDx=0;exitDy=0;entryX=0.25;entryY=0;entryDx=0;entryDy=0;" parent="WIyWlLk6GJQsqaUBKTNV-1" source="Mt08PbIIcdnvE-Uucdc--32" target="Mt08PbIIcdnvE-Uucdc--41" edge="1">
          <mxGeometry width="50" height="50" relative="1" as="geometry">
            <mxPoint x="330" y="420" as="sourcePoint" />
            <mxPoint x="380" y="370" as="targetPoint" />
          </mxGeometry>
        </mxCell>
        <mxCell id="Mt08PbIIcdnvE-Uucdc--94" value="" style="endArrow=none;html=1;entryX=0.5;entryY=1;entryDx=0;entryDy=0;exitX=0.5;exitY=0;exitDx=0;exitDy=0;" parent="WIyWlLk6GJQsqaUBKTNV-1" source="Mt08PbIIcdnvE-Uucdc--41" target="Mt08PbIIcdnvE-Uucdc--92" edge="1">
          <mxGeometry width="50" height="50" relative="1" as="geometry">
            <mxPoint x="330" y="420" as="sourcePoint" />
            <mxPoint x="380" y="370" as="targetPoint" />
          </mxGeometry>
        </mxCell>
        <mxCell id="Mt08PbIIcdnvE-Uucdc--95" value="&lt;font style=&quot;font-size: 25px&quot;&gt;from&lt;/font&gt;" style="ellipse;whiteSpace=wrap;html=1;" parent="WIyWlLk6GJQsqaUBKTNV-1" vertex="1">
          <mxGeometry x="590" y="-30" width="120" height="80" as="geometry" />
        </mxCell>
        <mxCell id="Mt08PbIIcdnvE-Uucdc--96" value="" style="endArrow=none;html=1;exitX=1;exitY=0;exitDx=0;exitDy=0;entryX=0;entryY=1;entryDx=0;entryDy=0;" parent="WIyWlLk6GJQsqaUBKTNV-1" source="Mt08PbIIcdnvE-Uucdc--32" target="Mt08PbIIcdnvE-Uucdc--95" edge="1">
          <mxGeometry width="50" height="50" relative="1" as="geometry">
            <mxPoint x="340" y="330" as="sourcePoint" />
            <mxPoint x="390" y="280" as="targetPoint" />
          </mxGeometry>
        </mxCell>
        <mxCell id="Mt08PbIIcdnvE-Uucdc--97" value="" style="endArrow=classic;html=1;entryX=0;entryY=0.25;entryDx=0;entryDy=0;exitX=1;exitY=0.5;exitDx=0;exitDy=0;" parent="WIyWlLk6GJQsqaUBKTNV-1" source="Mt08PbIIcdnvE-Uucdc--37" target="Mt08PbIIcdnvE-Uucdc--33" edge="1">
          <mxGeometry width="50" height="50" relative="1" as="geometry">
            <mxPoint x="780" y="880" as="sourcePoint" />
            <mxPoint x="830" y="830" as="targetPoint" />
          </mxGeometry>
        </mxCell>
        <mxCell id="Mt08PbIIcdnvE-Uucdc--98" value="" style="endArrow=classic;html=1;entryX=0;entryY=0.5;entryDx=0;entryDy=0;exitX=1;exitY=0.5;exitDx=0;exitDy=0;" parent="WIyWlLk6GJQsqaUBKTNV-1" source="Mt08PbIIcdnvE-Uucdc--37" target="Mt08PbIIcdnvE-Uucdc--34" edge="1">
          <mxGeometry width="50" height="50" relative="1" as="geometry">
            <mxPoint x="780" y="880" as="sourcePoint" />
            <mxPoint x="830" y="830" as="targetPoint" />
          </mxGeometry>
        </mxCell>
        <mxCell id="Mt08PbIIcdnvE-Uucdc--99" value="" style="endArrow=classic;html=1;entryX=0;entryY=0.5;entryDx=0;entryDy=0;exitX=1;exitY=0.5;exitDx=0;exitDy=0;" parent="WIyWlLk6GJQsqaUBKTNV-1" source="Mt08PbIIcdnvE-Uucdc--37" target="Mt08PbIIcdnvE-Uucdc--35" edge="1">
          <mxGeometry width="50" height="50" relative="1" as="geometry">
            <mxPoint x="1000" y="810" as="sourcePoint" />
            <mxPoint x="830" y="830" as="targetPoint" />
          </mxGeometry>
        </mxCell>
        <mxCell id="Mt08PbIIcdnvE-Uucdc--100" value="" style="endArrow=classic;html=1;entryX=0;entryY=0.5;entryDx=0;entryDy=0;exitX=1;exitY=0.5;exitDx=0;exitDy=0;" parent="WIyWlLk6GJQsqaUBKTNV-1" source="Mt08PbIIcdnvE-Uucdc--37" target="Mt08PbIIcdnvE-Uucdc--36" edge="1">
          <mxGeometry width="50" height="50" relative="1" as="geometry">
            <mxPoint x="990" y="770" as="sourcePoint" />
            <mxPoint x="830" y="830" as="targetPoint" />
          </mxGeometry>
        </mxCell>
        <mxCell id="Mt08PbIIcdnvE-Uucdc--101" value="&lt;font style=&quot;font-size: 25px&quot;&gt;路径&lt;/font&gt;" style="ellipse;whiteSpace=wrap;html=1;" parent="WIyWlLk6GJQsqaUBKTNV-1" vertex="1">
          <mxGeometry x="1300" y="1020" width="120" height="80" as="geometry" />
        </mxCell>
        <mxCell id="Mt08PbIIcdnvE-Uucdc--102" value="&lt;font style=&quot;font-size: 25px&quot;&gt;路径&lt;/font&gt;" style="ellipse;whiteSpace=wrap;html=1;" parent="WIyWlLk6GJQsqaUBKTNV-1" vertex="1">
          <mxGeometry x="1170" y="1040" width="120" height="80" as="geometry" />
        </mxCell>
        <mxCell id="Mt08PbIIcdnvE-Uucdc--103" value="&lt;font style=&quot;font-size: 25px&quot;&gt;路径&lt;/font&gt;" style="ellipse;whiteSpace=wrap;html=1;" parent="WIyWlLk6GJQsqaUBKTNV-1" vertex="1">
          <mxGeometry x="1040" y="1060" width="120" height="80" as="geometry" />
        </mxCell>
        <mxCell id="Mt08PbIIcdnvE-Uucdc--104" value="&lt;font style=&quot;font-size: 25px&quot;&gt;路径&lt;/font&gt;" style="ellipse;whiteSpace=wrap;html=1;" parent="WIyWlLk6GJQsqaUBKTNV-1" vertex="1">
          <mxGeometry x="950" y="980" width="120" height="80" as="geometry" />
        </mxCell>
        <mxCell id="Mt08PbIIcdnvE-Uucdc--105" value="&lt;font style=&quot;font-size: 25px&quot;&gt;系统性质&lt;/font&gt;" style="ellipse;whiteSpace=wrap;html=1;" parent="WIyWlLk6GJQsqaUBKTNV-1" vertex="1">
          <mxGeometry x="1330" y="850" width="120" height="80" as="geometry" />
        </mxCell>
        <mxCell id="Mt08PbIIcdnvE-Uucdc--106" value="&lt;font style=&quot;font-size: 25px&quot;&gt;系统&lt;br&gt;负责人&lt;/font&gt;" style="ellipse;whiteSpace=wrap;html=1;" parent="WIyWlLk6GJQsqaUBKTNV-1" vertex="1">
          <mxGeometry x="1320" y="760" width="120" height="80" as="geometry" />
        </mxCell>
        <mxCell id="Mt08PbIIcdnvE-Uucdc--107" value="&lt;font style=&quot;font-size: 25px&quot;&gt;项目来源&lt;/font&gt;" style="ellipse;whiteSpace=wrap;html=1;" parent="WIyWlLk6GJQsqaUBKTNV-1" vertex="1">
          <mxGeometry x="1000" y="580" width="120" height="80" as="geometry" />
        </mxCell>
        <mxCell id="Mt08PbIIcdnvE-Uucdc--108" value="&lt;font style=&quot;font-size: 25px&quot;&gt;项目性质&lt;br&gt;&lt;/font&gt;" style="ellipse;whiteSpace=wrap;html=1;" parent="WIyWlLk6GJQsqaUBKTNV-1" vertex="1">
          <mxGeometry x="1130" y="530" width="120" height="80" as="geometry" />
        </mxCell>
        <mxCell id="Mt08PbIIcdnvE-Uucdc--109" value="&lt;font style=&quot;font-size: 25px&quot;&gt;项目预算&lt;br&gt;&lt;/font&gt;" style="ellipse;whiteSpace=wrap;html=1;" parent="WIyWlLk6GJQsqaUBKTNV-1" vertex="1">
          <mxGeometry x="1320" y="665" width="120" height="80" as="geometry" />
        </mxCell>
        <mxCell id="Mt08PbIIcdnvE-Uucdc--110" value="&lt;font style=&quot;font-size: 25px&quot;&gt;项目&lt;br&gt;负责人&lt;/font&gt;" style="ellipse;whiteSpace=wrap;html=1;" parent="WIyWlLk6GJQsqaUBKTNV-1" vertex="1">
          <mxGeometry x="1241" y="585" width="120" height="80" as="geometry" />
        </mxCell>
        <mxCell id="Mt08PbIIcdnvE-Uucdc--111" value="" style="endArrow=none;html=1;exitX=1;exitY=0.75;exitDx=0;exitDy=0;entryX=0;entryY=0.5;entryDx=0;entryDy=0;" parent="WIyWlLk6GJQsqaUBKTNV-1" source="Mt08PbIIcdnvE-Uucdc--35" target="Mt08PbIIcdnvE-Uucdc--105" edge="1">
          <mxGeometry width="50" height="50" relative="1" as="geometry">
            <mxPoint x="890" y="850" as="sourcePoint" />
            <mxPoint x="940" y="800" as="targetPoint" />
          </mxGeometry>
        </mxCell>
        <mxCell id="Mt08PbIIcdnvE-Uucdc--112" value="" style="endArrow=none;html=1;exitX=1;exitY=0.5;exitDx=0;exitDy=0;entryX=0;entryY=0.5;entryDx=0;entryDy=0;" parent="WIyWlLk6GJQsqaUBKTNV-1" source="Mt08PbIIcdnvE-Uucdc--35" target="Mt08PbIIcdnvE-Uucdc--106" edge="1">
          <mxGeometry width="50" height="50" relative="1" as="geometry">
            <mxPoint x="890" y="850" as="sourcePoint" />
            <mxPoint x="940" y="800" as="targetPoint" />
          </mxGeometry>
        </mxCell>
        <mxCell id="Mt08PbIIcdnvE-Uucdc--113" value="" style="endArrow=none;html=1;entryX=1;entryY=0.5;entryDx=0;entryDy=0;exitX=0;exitY=0.5;exitDx=0;exitDy=0;" parent="WIyWlLk6GJQsqaUBKTNV-1" source="Mt08PbIIcdnvE-Uucdc--109" target="Mt08PbIIcdnvE-Uucdc--36" edge="1">
          <mxGeometry width="50" height="50" relative="1" as="geometry">
            <mxPoint x="890" y="850" as="sourcePoint" />
            <mxPoint x="940" y="800" as="targetPoint" />
          </mxGeometry>
        </mxCell>
        <mxCell id="Mt08PbIIcdnvE-Uucdc--114" value="" style="endArrow=none;html=1;exitX=0.75;exitY=0;exitDx=0;exitDy=0;entryX=0;entryY=1;entryDx=0;entryDy=0;" parent="WIyWlLk6GJQsqaUBKTNV-1" source="Mt08PbIIcdnvE-Uucdc--36" target="Mt08PbIIcdnvE-Uucdc--110" edge="1">
          <mxGeometry width="50" height="50" relative="1" as="geometry">
            <mxPoint x="930" y="840" as="sourcePoint" />
            <mxPoint x="940" y="800" as="targetPoint" />
          </mxGeometry>
        </mxCell>
        <mxCell id="Mt08PbIIcdnvE-Uucdc--115" value="" style="endArrow=none;html=1;exitX=0.5;exitY=1;exitDx=0;exitDy=0;entryX=0.5;entryY=0;entryDx=0;entryDy=0;" parent="WIyWlLk6GJQsqaUBKTNV-1" source="Mt08PbIIcdnvE-Uucdc--108" target="Mt08PbIIcdnvE-Uucdc--36" edge="1">
          <mxGeometry width="50" height="50" relative="1" as="geometry">
            <mxPoint x="890" y="850" as="sourcePoint" />
            <mxPoint x="940" y="800" as="targetPoint" />
          </mxGeometry>
        </mxCell>
        <mxCell id="Mt08PbIIcdnvE-Uucdc--116" value="" style="endArrow=none;html=1;exitX=0.25;exitY=0;exitDx=0;exitDy=0;entryX=1;entryY=1;entryDx=0;entryDy=0;" parent="WIyWlLk6GJQsqaUBKTNV-1" source="Mt08PbIIcdnvE-Uucdc--36" target="Mt08PbIIcdnvE-Uucdc--107" edge="1">
          <mxGeometry width="50" height="50" relative="1" as="geometry">
            <mxPoint x="890" y="850" as="sourcePoint" />
            <mxPoint x="940" y="800" as="targetPoint" />
          </mxGeometry>
        </mxCell>
        <mxCell id="Mt08PbIIcdnvE-Uucdc--117" value="" style="endArrow=none;html=1;exitX=1;exitY=0.5;exitDx=0;exitDy=0;entryX=0.042;entryY=0.275;entryDx=0;entryDy=0;entryPerimeter=0;" parent="WIyWlLk6GJQsqaUBKTNV-1" source="Mt08PbIIcdnvE-Uucdc--34" target="Mt08PbIIcdnvE-Uucdc--4" edge="1">
          <mxGeometry width="50" height="50" relative="1" as="geometry">
            <mxPoint x="890" y="850" as="sourcePoint" />
            <mxPoint x="940" y="800" as="targetPoint" />
          </mxGeometry>
        </mxCell>
        <mxCell id="Mt08PbIIcdnvE-Uucdc--118" value="" style="endArrow=none;html=1;entryX=1;entryY=0.75;entryDx=0;entryDy=0;exitX=0;exitY=0;exitDx=0;exitDy=0;" parent="WIyWlLk6GJQsqaUBKTNV-1" source="Mt08PbIIcdnvE-Uucdc--101" target="Mt08PbIIcdnvE-Uucdc--34" edge="1">
          <mxGeometry width="50" height="50" relative="1" as="geometry">
            <mxPoint x="890" y="850" as="sourcePoint" />
            <mxPoint x="940" y="800" as="targetPoint" />
          </mxGeometry>
        </mxCell>
        <mxCell id="Mt08PbIIcdnvE-Uucdc--119" value="" style="endArrow=none;html=1;exitX=0.75;exitY=1;exitDx=0;exitDy=0;entryX=0.5;entryY=0;entryDx=0;entryDy=0;" parent="WIyWlLk6GJQsqaUBKTNV-1" source="Mt08PbIIcdnvE-Uucdc--33" target="Mt08PbIIcdnvE-Uucdc--102" edge="1">
          <mxGeometry width="50" height="50" relative="1" as="geometry">
            <mxPoint x="890" y="850" as="sourcePoint" />
            <mxPoint x="940" y="800" as="targetPoint" />
          </mxGeometry>
        </mxCell>
        <mxCell id="Mt08PbIIcdnvE-Uucdc--120" value="" style="endArrow=none;html=1;entryX=0.5;entryY=0;entryDx=0;entryDy=0;exitX=0.25;exitY=1;exitDx=0;exitDy=0;" parent="WIyWlLk6GJQsqaUBKTNV-1" source="Mt08PbIIcdnvE-Uucdc--33" target="Mt08PbIIcdnvE-Uucdc--103" edge="1">
          <mxGeometry width="50" height="50" relative="1" as="geometry">
            <mxPoint x="890" y="850" as="sourcePoint" />
            <mxPoint x="940" y="800" as="targetPoint" />
          </mxGeometry>
        </mxCell>
        <mxCell id="Mt08PbIIcdnvE-Uucdc--121" value="" style="endArrow=none;html=1;exitX=1;exitY=0;exitDx=0;exitDy=0;entryX=0;entryY=1;entryDx=0;entryDy=0;" parent="WIyWlLk6GJQsqaUBKTNV-1" source="Mt08PbIIcdnvE-Uucdc--104" target="Mt08PbIIcdnvE-Uucdc--33" edge="1">
          <mxGeometry width="50" height="50" relative="1" as="geometry">
            <mxPoint x="890" y="850" as="sourcePoint" />
            <mxPoint x="940" y="800" as="targetPoint" />
          </mxGeometry>
        </mxCell>
        <mxCell id="Mt08PbIIcdnvE-Uucdc--128" value="&lt;font style=&quot;font-size: 18px&quot;&gt;继承&lt;/font&gt;" style="text;html=1;strokeColor=none;fillColor=none;align=center;verticalAlign=middle;whiteSpace=wrap;rounded=0;" parent="WIyWlLk6GJQsqaUBKTNV-1" vertex="1">
          <mxGeometry x="960" y="840" width="40" height="20" as="geometry" />
        </mxCell>
        <mxCell id="Mt08PbIIcdnvE-Uucdc--129" value="&lt;font style=&quot;font-size: 18px&quot;&gt;继承&lt;/font&gt;" style="text;html=1;strokeColor=none;fillColor=none;align=center;verticalAlign=middle;whiteSpace=wrap;rounded=0;" parent="WIyWlLk6GJQsqaUBKTNV-1" vertex="1">
          <mxGeometry x="970" y="890" width="40" height="20" as="geometry" />
        </mxCell>
        <mxCell id="Mt08PbIIcdnvE-Uucdc--135" value="&lt;font style=&quot;font-size: 25px&quot;&gt;项目预算&lt;/font&gt;" style="ellipse;whiteSpace=wrap;html=1;" parent="WIyWlLk6GJQsqaUBKTNV-1" vertex="1">
          <mxGeometry x="750" y="1630" width="120" height="80" as="geometry" />
        </mxCell>
        <mxCell id="Mt08PbIIcdnvE-Uucdc--136" value="&lt;font style=&quot;font-size: 25px&quot;&gt;项目&lt;br&gt;负责人&lt;/font&gt;" style="ellipse;whiteSpace=wrap;html=1;" parent="WIyWlLk6GJQsqaUBKTNV-1" vertex="1">
          <mxGeometry x="650" y="1400" width="120" height="80" as="geometry" />
        </mxCell>
        <mxCell id="Mt08PbIIcdnvE-Uucdc--137" value="&lt;font style=&quot;font-size: 25px&quot;&gt;路径&lt;/font&gt;" style="ellipse;whiteSpace=wrap;html=1;" parent="WIyWlLk6GJQsqaUBKTNV-1" vertex="1">
          <mxGeometry x="350" y="1710" width="120" height="80" as="geometry" />
        </mxCell>
        <mxCell id="Mt08PbIIcdnvE-Uucdc--138" value="&lt;font style=&quot;font-size: 25px&quot;&gt;路径&lt;/font&gt;" style="ellipse;whiteSpace=wrap;html=1;" parent="WIyWlLk6GJQsqaUBKTNV-1" vertex="1">
          <mxGeometry x="470" y="1640" width="120" height="80" as="geometry" />
        </mxCell>
        <mxCell id="Mt08PbIIcdnvE-Uucdc--139" value="&lt;font style=&quot;font-size: 25px&quot;&gt;路径&lt;/font&gt;" style="ellipse;whiteSpace=wrap;html=1;" parent="WIyWlLk6GJQsqaUBKTNV-1" vertex="1">
          <mxGeometry x="1220" y="1670" width="120" height="80" as="geometry" />
        </mxCell>
        <mxCell id="Mt08PbIIcdnvE-Uucdc--140" value="&lt;font style=&quot;font-size: 25px&quot;&gt;项目来源&lt;/font&gt;" style="ellipse;whiteSpace=wrap;html=1;" parent="WIyWlLk6GJQsqaUBKTNV-1" vertex="1">
          <mxGeometry x="620" y="1640" width="120" height="80" as="geometry" />
        </mxCell>
        <mxCell id="Mt08PbIIcdnvE-Uucdc--141" value="&lt;font style=&quot;font-size: 25px&quot;&gt;路径&lt;/font&gt;" style="ellipse;whiteSpace=wrap;html=1;" parent="WIyWlLk6GJQsqaUBKTNV-1" vertex="1">
          <mxGeometry x="200" y="1710" width="120" height="80" as="geometry" />
        </mxCell>
        <mxCell id="Mt08PbIIcdnvE-Uucdc--142" value="&lt;font style=&quot;font-size: 25px&quot;&gt;路径&lt;/font&gt;" style="ellipse;whiteSpace=wrap;html=1;" parent="WIyWlLk6GJQsqaUBKTNV-1" vertex="1">
          <mxGeometry x="110" y="1630" width="120" height="80" as="geometry" />
        </mxCell>
        <mxCell id="Mt08PbIIcdnvE-Uucdc--143" value="&lt;font style=&quot;font-size: 25px&quot;&gt;项目性质&lt;/font&gt;" style="ellipse;whiteSpace=wrap;html=1;" parent="WIyWlLk6GJQsqaUBKTNV-1" vertex="1">
          <mxGeometry x="790" y="1400" width="120" height="80" as="geometry" />
        </mxCell>
        <mxCell id="Mt08PbIIcdnvE-Uucdc--144" value="&lt;font style=&quot;font-size: 25px&quot;&gt;路径&lt;/font&gt;" style="rounded=0;whiteSpace=wrap;html=1;" parent="WIyWlLk6GJQsqaUBKTNV-1" vertex="1">
          <mxGeometry x="970" y="1660" width="120" height="60" as="geometry" />
        </mxCell>
        <mxCell id="Mt08PbIIcdnvE-Uucdc--145" value="&lt;font style=&quot;font-size: 25px&quot;&gt;路径&lt;/font&gt;" style="rounded=0;whiteSpace=wrap;html=1;" parent="WIyWlLk6GJQsqaUBKTNV-1" vertex="1">
          <mxGeometry x="970" y="1580" width="120" height="60" as="geometry" />
        </mxCell>
        <mxCell id="Mt08PbIIcdnvE-Uucdc--146" value="&lt;font style=&quot;font-size: 25px&quot;&gt;路径&lt;/font&gt;" style="rounded=0;whiteSpace=wrap;html=1;" parent="WIyWlLk6GJQsqaUBKTNV-1" vertex="1">
          <mxGeometry x="970" y="1500" width="120" height="60" as="geometry" />
        </mxCell>
        <mxCell id="Mt08PbIIcdnvE-Uucdc--147" value="&lt;font style=&quot;font-size: 25px&quot;&gt;路径&lt;/font&gt;" style="rounded=0;whiteSpace=wrap;html=1;" parent="WIyWlLk6GJQsqaUBKTNV-1" vertex="1">
          <mxGeometry x="970" y="1420" width="120" height="60" as="geometry" />
        </mxCell>
        <mxCell id="Mt08PbIIcdnvE-Uucdc--148" value="&lt;span style=&quot;font-size: 25px&quot;&gt;确定的目录信息&lt;br&gt;(fixedDirectoryInfo)&lt;br&gt;&lt;/span&gt;" style="rounded=0;whiteSpace=wrap;html=1;" parent="WIyWlLk6GJQsqaUBKTNV-1" vertex="1">
          <mxGeometry x="467" y="1520" width="240" height="60" as="geometry" />
        </mxCell>
        <mxCell id="Mt08PbIIcdnvE-Uucdc--149" value="&lt;font style=&quot;font-size: 25px&quot;&gt;路径信息&lt;br&gt;(PathInfo)&lt;br&gt;&lt;/font&gt;" style="rounded=0;whiteSpace=wrap;html=1;" parent="WIyWlLk6GJQsqaUBKTNV-1" vertex="1">
          <mxGeometry x="274" y="1610" width="120" height="60" as="geometry" />
        </mxCell>
        <mxCell id="Mt08PbIIcdnvE-Uucdc--150" value="" style="endArrow=none;html=1;entryX=0.5;entryY=1;entryDx=0;entryDy=0;exitX=0;exitY=0;exitDx=0;exitDy=0;" parent="WIyWlLk6GJQsqaUBKTNV-1" source="Mt08PbIIcdnvE-Uucdc--191" edge="1">
          <mxGeometry width="50" height="50" relative="1" as="geometry">
            <mxPoint x="430" y="1500" as="sourcePoint" />
            <mxPoint x="440" y="1379.9999999999995" as="targetPoint" />
          </mxGeometry>
        </mxCell>
        <mxCell id="Mt08PbIIcdnvE-Uucdc--151" value="" style="endArrow=none;html=1;exitX=0.5;exitY=1;exitDx=0;exitDy=0;entryX=0.5;entryY=0;entryDx=0;entryDy=0;" parent="WIyWlLk6GJQsqaUBKTNV-1" target="Mt08PbIIcdnvE-Uucdc--149" edge="1">
          <mxGeometry width="50" height="50" relative="1" as="geometry">
            <mxPoint x="333.99999999999955" y="1379.9999999999995" as="sourcePoint" />
            <mxPoint x="350" y="1500" as="targetPoint" />
          </mxGeometry>
        </mxCell>
        <mxCell id="Mt08PbIIcdnvE-Uucdc--152" value="" style="endArrow=none;html=1;entryX=1;entryY=0.5;entryDx=0;entryDy=0;exitX=0;exitY=0.5;exitDx=0;exitDy=0;" parent="WIyWlLk6GJQsqaUBKTNV-1" source="Mt08PbIIcdnvE-Uucdc--138" target="Mt08PbIIcdnvE-Uucdc--149" edge="1">
          <mxGeometry width="50" height="50" relative="1" as="geometry">
            <mxPoint x="200" y="1770" as="sourcePoint" />
            <mxPoint x="250" y="1720" as="targetPoint" />
          </mxGeometry>
        </mxCell>
        <mxCell id="Mt08PbIIcdnvE-Uucdc--153" value="" style="endArrow=none;html=1;exitX=0.75;exitY=1;exitDx=0;exitDy=0;entryX=0.5;entryY=0;entryDx=0;entryDy=0;" parent="WIyWlLk6GJQsqaUBKTNV-1" source="Mt08PbIIcdnvE-Uucdc--149" target="Mt08PbIIcdnvE-Uucdc--137" edge="1">
          <mxGeometry width="50" height="50" relative="1" as="geometry">
            <mxPoint x="200" y="1770" as="sourcePoint" />
            <mxPoint x="250" y="1720" as="targetPoint" />
          </mxGeometry>
        </mxCell>
        <mxCell id="Mt08PbIIcdnvE-Uucdc--154" value="" style="endArrow=none;html=1;exitX=0.5;exitY=0;exitDx=0;exitDy=0;entryX=0.25;entryY=1;entryDx=0;entryDy=0;" parent="WIyWlLk6GJQsqaUBKTNV-1" source="Mt08PbIIcdnvE-Uucdc--141" target="Mt08PbIIcdnvE-Uucdc--149" edge="1">
          <mxGeometry width="50" height="50" relative="1" as="geometry">
            <mxPoint x="200" y="1770" as="sourcePoint" />
            <mxPoint x="250" y="1720" as="targetPoint" />
          </mxGeometry>
        </mxCell>
        <mxCell id="Mt08PbIIcdnvE-Uucdc--155" value="" style="endArrow=none;html=1;exitX=1;exitY=0.5;exitDx=0;exitDy=0;entryX=0;entryY=0.5;entryDx=0;entryDy=0;" parent="WIyWlLk6GJQsqaUBKTNV-1" source="Mt08PbIIcdnvE-Uucdc--142" target="Mt08PbIIcdnvE-Uucdc--149" edge="1">
          <mxGeometry width="50" height="50" relative="1" as="geometry">
            <mxPoint x="200" y="1770" as="sourcePoint" />
            <mxPoint x="250" y="1720" as="targetPoint" />
          </mxGeometry>
        </mxCell>
        <mxCell id="Mt08PbIIcdnvE-Uucdc--156" value="" style="endArrow=none;html=1;exitX=0.75;exitY=0;exitDx=0;exitDy=0;entryX=0;entryY=1;entryDx=0;entryDy=0;" parent="WIyWlLk6GJQsqaUBKTNV-1" source="Mt08PbIIcdnvE-Uucdc--148" target="Mt08PbIIcdnvE-Uucdc--136" edge="1">
          <mxGeometry width="50" height="50" relative="1" as="geometry">
            <mxPoint x="870" y="1650" as="sourcePoint" />
            <mxPoint x="920" y="1600" as="targetPoint" />
          </mxGeometry>
        </mxCell>
        <mxCell id="Mt08PbIIcdnvE-Uucdc--157" value="" style="endArrow=none;html=1;exitX=1;exitY=0.5;exitDx=0;exitDy=0;entryX=0;entryY=1;entryDx=0;entryDy=0;" parent="WIyWlLk6GJQsqaUBKTNV-1" source="Mt08PbIIcdnvE-Uucdc--148" target="Mt08PbIIcdnvE-Uucdc--143" edge="1">
          <mxGeometry width="50" height="50" relative="1" as="geometry">
            <mxPoint x="870" y="1650" as="sourcePoint" />
            <mxPoint x="920" y="1600" as="targetPoint" />
          </mxGeometry>
        </mxCell>
        <mxCell id="Mt08PbIIcdnvE-Uucdc--158" value="" style="endArrow=none;html=1;exitX=0;exitY=0;exitDx=0;exitDy=0;entryX=1;entryY=1;entryDx=0;entryDy=0;" parent="WIyWlLk6GJQsqaUBKTNV-1" source="Mt08PbIIcdnvE-Uucdc--135" target="Mt08PbIIcdnvE-Uucdc--148" edge="1">
          <mxGeometry width="50" height="50" relative="1" as="geometry">
            <mxPoint x="870" y="1650" as="sourcePoint" />
            <mxPoint x="920" y="1600" as="targetPoint" />
          </mxGeometry>
        </mxCell>
        <mxCell id="Mt08PbIIcdnvE-Uucdc--159" value="" style="endArrow=none;html=1;exitX=0.5;exitY=0;exitDx=0;exitDy=0;entryX=0.75;entryY=1;entryDx=0;entryDy=0;" parent="WIyWlLk6GJQsqaUBKTNV-1" source="Mt08PbIIcdnvE-Uucdc--140" target="Mt08PbIIcdnvE-Uucdc--148" edge="1">
          <mxGeometry width="50" height="50" relative="1" as="geometry">
            <mxPoint x="870" y="1650" as="sourcePoint" />
            <mxPoint x="920" y="1600" as="targetPoint" />
          </mxGeometry>
        </mxCell>
        <mxCell id="Mt08PbIIcdnvE-Uucdc--160" value="" style="endArrow=classic;html=1;entryX=0;entryY=0.25;entryDx=0;entryDy=0;exitX=1;exitY=0.5;exitDx=0;exitDy=0;" parent="WIyWlLk6GJQsqaUBKTNV-1" source="Mt08PbIIcdnvE-Uucdc--148" target="Mt08PbIIcdnvE-Uucdc--144" edge="1">
          <mxGeometry width="50" height="50" relative="1" as="geometry">
            <mxPoint x="660" y="1610" as="sourcePoint" />
            <mxPoint x="710" y="1560" as="targetPoint" />
          </mxGeometry>
        </mxCell>
        <mxCell id="Mt08PbIIcdnvE-Uucdc--161" value="" style="endArrow=classic;html=1;entryX=0;entryY=0.5;entryDx=0;entryDy=0;exitX=1;exitY=0.5;exitDx=0;exitDy=0;" parent="WIyWlLk6GJQsqaUBKTNV-1" source="Mt08PbIIcdnvE-Uucdc--148" target="Mt08PbIIcdnvE-Uucdc--145" edge="1">
          <mxGeometry width="50" height="50" relative="1" as="geometry">
            <mxPoint x="660" y="1610" as="sourcePoint" />
            <mxPoint x="710" y="1560" as="targetPoint" />
          </mxGeometry>
        </mxCell>
        <mxCell id="Mt08PbIIcdnvE-Uucdc--162" value="" style="endArrow=classic;html=1;entryX=0;entryY=0.5;entryDx=0;entryDy=0;exitX=1;exitY=0.5;exitDx=0;exitDy=0;" parent="WIyWlLk6GJQsqaUBKTNV-1" source="Mt08PbIIcdnvE-Uucdc--148" target="Mt08PbIIcdnvE-Uucdc--146" edge="1">
          <mxGeometry width="50" height="50" relative="1" as="geometry">
            <mxPoint x="880" y="1540" as="sourcePoint" />
            <mxPoint x="710" y="1560" as="targetPoint" />
          </mxGeometry>
        </mxCell>
        <mxCell id="Mt08PbIIcdnvE-Uucdc--163" value="" style="endArrow=classic;html=1;entryX=0;entryY=0.5;entryDx=0;entryDy=0;exitX=1;exitY=0.5;exitDx=0;exitDy=0;" parent="WIyWlLk6GJQsqaUBKTNV-1" source="Mt08PbIIcdnvE-Uucdc--148" target="Mt08PbIIcdnvE-Uucdc--147" edge="1">
          <mxGeometry width="50" height="50" relative="1" as="geometry">
            <mxPoint x="870" y="1500" as="sourcePoint" />
            <mxPoint x="710" y="1560" as="targetPoint" />
          </mxGeometry>
        </mxCell>
        <mxCell id="Mt08PbIIcdnvE-Uucdc--164" value="&lt;font style=&quot;font-size: 25px&quot;&gt;路径&lt;/font&gt;" style="ellipse;whiteSpace=wrap;html=1;" parent="WIyWlLk6GJQsqaUBKTNV-1" vertex="1">
          <mxGeometry x="1180" y="1750" width="120" height="80" as="geometry" />
        </mxCell>
        <mxCell id="Mt08PbIIcdnvE-Uucdc--165" value="&lt;font style=&quot;font-size: 25px&quot;&gt;路径&lt;/font&gt;" style="ellipse;whiteSpace=wrap;html=1;" parent="WIyWlLk6GJQsqaUBKTNV-1" vertex="1">
          <mxGeometry x="1050" y="1770" width="120" height="80" as="geometry" />
        </mxCell>
        <mxCell id="Mt08PbIIcdnvE-Uucdc--166" value="&lt;font style=&quot;font-size: 25px&quot;&gt;路径&lt;/font&gt;" style="ellipse;whiteSpace=wrap;html=1;" parent="WIyWlLk6GJQsqaUBKTNV-1" vertex="1">
          <mxGeometry x="920" y="1790" width="120" height="80" as="geometry" />
        </mxCell>
        <mxCell id="Mt08PbIIcdnvE-Uucdc--167" value="&lt;font style=&quot;font-size: 25px&quot;&gt;路径&lt;/font&gt;" style="ellipse;whiteSpace=wrap;html=1;" parent="WIyWlLk6GJQsqaUBKTNV-1" vertex="1">
          <mxGeometry x="830" y="1710" width="120" height="80" as="geometry" />
        </mxCell>
        <mxCell id="Mt08PbIIcdnvE-Uucdc--168" value="&lt;font style=&quot;font-size: 25px&quot;&gt;系统性质&lt;/font&gt;" style="ellipse;whiteSpace=wrap;html=1;" parent="WIyWlLk6GJQsqaUBKTNV-1" vertex="1">
          <mxGeometry x="1210" y="1580" width="120" height="80" as="geometry" />
        </mxCell>
        <mxCell id="Mt08PbIIcdnvE-Uucdc--169" value="&lt;font style=&quot;font-size: 25px&quot;&gt;系统&lt;br&gt;负责人&lt;/font&gt;" style="ellipse;whiteSpace=wrap;html=1;" parent="WIyWlLk6GJQsqaUBKTNV-1" vertex="1">
          <mxGeometry x="1200" y="1490" width="120" height="80" as="geometry" />
        </mxCell>
        <mxCell id="Mt08PbIIcdnvE-Uucdc--170" value="&lt;font style=&quot;font-size: 25px&quot;&gt;项目来源&lt;/font&gt;" style="ellipse;whiteSpace=wrap;html=1;" parent="WIyWlLk6GJQsqaUBKTNV-1" vertex="1">
          <mxGeometry x="880" y="1310" width="120" height="80" as="geometry" />
        </mxCell>
        <mxCell id="Mt08PbIIcdnvE-Uucdc--171" value="&lt;font style=&quot;font-size: 25px&quot;&gt;项目性质&lt;br&gt;&lt;/font&gt;" style="ellipse;whiteSpace=wrap;html=1;" parent="WIyWlLk6GJQsqaUBKTNV-1" vertex="1">
          <mxGeometry x="1010" y="1260" width="120" height="80" as="geometry" />
        </mxCell>
        <mxCell id="Mt08PbIIcdnvE-Uucdc--172" value="&lt;font style=&quot;font-size: 25px&quot;&gt;项目预算&lt;br&gt;&lt;/font&gt;" style="ellipse;whiteSpace=wrap;html=1;" parent="WIyWlLk6GJQsqaUBKTNV-1" vertex="1">
          <mxGeometry x="1200" y="1395" width="120" height="80" as="geometry" />
        </mxCell>
        <mxCell id="Mt08PbIIcdnvE-Uucdc--173" value="&lt;font style=&quot;font-size: 25px&quot;&gt;项目&lt;br&gt;负责人&lt;/font&gt;" style="ellipse;whiteSpace=wrap;html=1;" parent="WIyWlLk6GJQsqaUBKTNV-1" vertex="1">
          <mxGeometry x="1121" y="1315" width="120" height="80" as="geometry" />
        </mxCell>
        <mxCell id="Mt08PbIIcdnvE-Uucdc--174" value="" style="endArrow=none;html=1;exitX=1;exitY=0.75;exitDx=0;exitDy=0;entryX=0;entryY=0.5;entryDx=0;entryDy=0;" parent="WIyWlLk6GJQsqaUBKTNV-1" source="Mt08PbIIcdnvE-Uucdc--146" target="Mt08PbIIcdnvE-Uucdc--168" edge="1">
          <mxGeometry width="50" height="50" relative="1" as="geometry">
            <mxPoint x="770" y="1580" as="sourcePoint" />
            <mxPoint x="820" y="1530" as="targetPoint" />
          </mxGeometry>
        </mxCell>
        <mxCell id="Mt08PbIIcdnvE-Uucdc--175" value="" style="endArrow=none;html=1;exitX=1;exitY=0.5;exitDx=0;exitDy=0;entryX=0;entryY=0.5;entryDx=0;entryDy=0;" parent="WIyWlLk6GJQsqaUBKTNV-1" source="Mt08PbIIcdnvE-Uucdc--146" target="Mt08PbIIcdnvE-Uucdc--169" edge="1">
          <mxGeometry width="50" height="50" relative="1" as="geometry">
            <mxPoint x="770" y="1580" as="sourcePoint" />
            <mxPoint x="820" y="1530" as="targetPoint" />
          </mxGeometry>
        </mxCell>
        <mxCell id="Mt08PbIIcdnvE-Uucdc--176" value="" style="endArrow=none;html=1;entryX=1;entryY=0.5;entryDx=0;entryDy=0;exitX=0;exitY=0.5;exitDx=0;exitDy=0;" parent="WIyWlLk6GJQsqaUBKTNV-1" source="Mt08PbIIcdnvE-Uucdc--172" target="Mt08PbIIcdnvE-Uucdc--147" edge="1">
          <mxGeometry width="50" height="50" relative="1" as="geometry">
            <mxPoint x="770" y="1580" as="sourcePoint" />
            <mxPoint x="820" y="1530" as="targetPoint" />
          </mxGeometry>
        </mxCell>
        <mxCell id="Mt08PbIIcdnvE-Uucdc--177" value="" style="endArrow=none;html=1;exitX=0.75;exitY=0;exitDx=0;exitDy=0;entryX=0;entryY=1;entryDx=0;entryDy=0;" parent="WIyWlLk6GJQsqaUBKTNV-1" source="Mt08PbIIcdnvE-Uucdc--147" target="Mt08PbIIcdnvE-Uucdc--173" edge="1">
          <mxGeometry width="50" height="50" relative="1" as="geometry">
            <mxPoint x="810" y="1570" as="sourcePoint" />
            <mxPoint x="820" y="1530" as="targetPoint" />
          </mxGeometry>
        </mxCell>
        <mxCell id="Mt08PbIIcdnvE-Uucdc--178" value="" style="endArrow=none;html=1;exitX=0.5;exitY=1;exitDx=0;exitDy=0;entryX=0.5;entryY=0;entryDx=0;entryDy=0;" parent="WIyWlLk6GJQsqaUBKTNV-1" source="Mt08PbIIcdnvE-Uucdc--171" target="Mt08PbIIcdnvE-Uucdc--147" edge="1">
          <mxGeometry width="50" height="50" relative="1" as="geometry">
            <mxPoint x="770" y="1580" as="sourcePoint" />
            <mxPoint x="820" y="1530" as="targetPoint" />
          </mxGeometry>
        </mxCell>
        <mxCell id="Mt08PbIIcdnvE-Uucdc--179" value="" style="endArrow=none;html=1;exitX=0.25;exitY=0;exitDx=0;exitDy=0;entryX=1;entryY=1;entryDx=0;entryDy=0;" parent="WIyWlLk6GJQsqaUBKTNV-1" source="Mt08PbIIcdnvE-Uucdc--147" target="Mt08PbIIcdnvE-Uucdc--170" edge="1">
          <mxGeometry width="50" height="50" relative="1" as="geometry">
            <mxPoint x="770" y="1580" as="sourcePoint" />
            <mxPoint x="820" y="1530" as="targetPoint" />
          </mxGeometry>
        </mxCell>
        <mxCell id="Mt08PbIIcdnvE-Uucdc--180" value="" style="endArrow=none;html=1;exitX=1;exitY=0.5;exitDx=0;exitDy=0;entryX=0.042;entryY=0.275;entryDx=0;entryDy=0;entryPerimeter=0;" parent="WIyWlLk6GJQsqaUBKTNV-1" source="Mt08PbIIcdnvE-Uucdc--145" target="Mt08PbIIcdnvE-Uucdc--139" edge="1">
          <mxGeometry width="50" height="50" relative="1" as="geometry">
            <mxPoint x="770" y="1580" as="sourcePoint" />
            <mxPoint x="820" y="1530" as="targetPoint" />
          </mxGeometry>
        </mxCell>
        <mxCell id="Mt08PbIIcdnvE-Uucdc--181" value="" style="endArrow=none;html=1;entryX=1;entryY=0.75;entryDx=0;entryDy=0;exitX=0;exitY=0;exitDx=0;exitDy=0;" parent="WIyWlLk6GJQsqaUBKTNV-1" source="Mt08PbIIcdnvE-Uucdc--164" target="Mt08PbIIcdnvE-Uucdc--145" edge="1">
          <mxGeometry width="50" height="50" relative="1" as="geometry">
            <mxPoint x="770" y="1580" as="sourcePoint" />
            <mxPoint x="820" y="1530" as="targetPoint" />
          </mxGeometry>
        </mxCell>
        <mxCell id="Mt08PbIIcdnvE-Uucdc--182" value="" style="endArrow=none;html=1;exitX=0.75;exitY=1;exitDx=0;exitDy=0;entryX=0.5;entryY=0;entryDx=0;entryDy=0;" parent="WIyWlLk6GJQsqaUBKTNV-1" source="Mt08PbIIcdnvE-Uucdc--144" target="Mt08PbIIcdnvE-Uucdc--165" edge="1">
          <mxGeometry width="50" height="50" relative="1" as="geometry">
            <mxPoint x="770" y="1580" as="sourcePoint" />
            <mxPoint x="820" y="1530" as="targetPoint" />
          </mxGeometry>
        </mxCell>
        <mxCell id="Mt08PbIIcdnvE-Uucdc--183" value="" style="endArrow=none;html=1;entryX=0.5;entryY=0;entryDx=0;entryDy=0;exitX=0.25;exitY=1;exitDx=0;exitDy=0;" parent="WIyWlLk6GJQsqaUBKTNV-1" source="Mt08PbIIcdnvE-Uucdc--144" target="Mt08PbIIcdnvE-Uucdc--166" edge="1">
          <mxGeometry width="50" height="50" relative="1" as="geometry">
            <mxPoint x="770" y="1580" as="sourcePoint" />
            <mxPoint x="820" y="1530" as="targetPoint" />
          </mxGeometry>
        </mxCell>
        <mxCell id="Mt08PbIIcdnvE-Uucdc--184" value="" style="endArrow=none;html=1;exitX=1;exitY=0;exitDx=0;exitDy=0;entryX=0;entryY=1;entryDx=0;entryDy=0;" parent="WIyWlLk6GJQsqaUBKTNV-1" source="Mt08PbIIcdnvE-Uucdc--167" target="Mt08PbIIcdnvE-Uucdc--144" edge="1">
          <mxGeometry width="50" height="50" relative="1" as="geometry">
            <mxPoint x="770" y="1580" as="sourcePoint" />
            <mxPoint x="820" y="1530" as="targetPoint" />
          </mxGeometry>
        </mxCell>
        <mxCell id="Mt08PbIIcdnvE-Uucdc--185" value="&lt;font style=&quot;font-size: 18px&quot;&gt;继承&lt;/font&gt;" style="text;html=1;strokeColor=none;fillColor=none;align=center;verticalAlign=middle;whiteSpace=wrap;rounded=0;" parent="WIyWlLk6GJQsqaUBKTNV-1" vertex="1">
          <mxGeometry x="840" y="1570" width="40" height="20" as="geometry" />
        </mxCell>
        <mxCell id="Mt08PbIIcdnvE-Uucdc--186" value="&lt;font style=&quot;font-size: 18px&quot;&gt;继承&lt;/font&gt;" style="text;html=1;strokeColor=none;fillColor=none;align=center;verticalAlign=middle;whiteSpace=wrap;rounded=0;" parent="WIyWlLk6GJQsqaUBKTNV-1" vertex="1">
          <mxGeometry x="850" y="1620" width="40" height="20" as="geometry" />
        </mxCell>
        <mxCell id="Mt08PbIIcdnvE-Uucdc--187" value="&lt;font style=&quot;font-size: 18px&quot;&gt;继承&lt;/font&gt;" style="text;html=1;strokeColor=none;fillColor=none;align=center;verticalAlign=middle;whiteSpace=wrap;rounded=0;" parent="WIyWlLk6GJQsqaUBKTNV-1" vertex="1">
          <mxGeometry x="850" y="1480" width="40" height="20" as="geometry" />
        </mxCell>
        <mxCell id="Mt08PbIIcdnvE-Uucdc--188" value="&lt;font style=&quot;font-size: 18px&quot;&gt;继承&lt;/font&gt;" style="text;html=1;strokeColor=none;fillColor=none;align=center;verticalAlign=middle;whiteSpace=wrap;rounded=0;" parent="WIyWlLk6GJQsqaUBKTNV-1" vertex="1">
          <mxGeometry x="860" y="1530" width="40" height="20" as="geometry" />
        </mxCell>
        <mxCell id="Mt08PbIIcdnvE-Uucdc--189" value="&lt;font style=&quot;font-size: 25px&quot;&gt;路径&lt;/font&gt;" style="rounded=0;whiteSpace=wrap;html=1;" parent="WIyWlLk6GJQsqaUBKTNV-1" vertex="1">
          <mxGeometry x="330" y="1320" width="120" height="60" as="geometry" />
        </mxCell>
        <mxCell id="Mt08PbIIcdnvE-Uucdc--190" value="&lt;font style=&quot;font-size: 25px&quot;&gt;关联&lt;/font&gt;" style="rhombus;whiteSpace=wrap;html=1;" parent="WIyWlLk6GJQsqaUBKTNV-1" vertex="1">
          <mxGeometry x="294" y="1440" width="80" height="80" as="geometry" />
        </mxCell>
        <mxCell id="Mt08PbIIcdnvE-Uucdc--191" value="&lt;font style=&quot;font-size: 25px&quot;&gt;关联&lt;/font&gt;" style="rhombus;whiteSpace=wrap;html=1;" parent="WIyWlLk6GJQsqaUBKTNV-1" vertex="1">
          <mxGeometry x="414" y="1420" width="80" height="80" as="geometry" />
        </mxCell>
        <mxCell id="Mt08PbIIcdnvE-Uucdc--192" value="" style="endArrow=none;html=1;entryX=0.5;entryY=1;entryDx=0;entryDy=0;exitX=0;exitY=0;exitDx=0;exitDy=0;" parent="WIyWlLk6GJQsqaUBKTNV-1" source="Mt08PbIIcdnvE-Uucdc--148" target="Mt08PbIIcdnvE-Uucdc--191" edge="1">
          <mxGeometry width="50" height="50" relative="1" as="geometry">
            <mxPoint x="467" y="1520" as="sourcePoint" />
            <mxPoint x="440" y="1379.999999999999" as="targetPoint" />
          </mxGeometry>
        </mxCell>
        <mxCell id="Mt08PbIIcdnvE-Uucdc--194" value="&lt;font style=&quot;font-size: 25px&quot;&gt;项目&lt;br&gt;负责人&lt;/font&gt;" style="ellipse;whiteSpace=wrap;html=1;" parent="WIyWlLk6GJQsqaUBKTNV-1" vertex="1">
          <mxGeometry x="2810" y="720" width="120" height="80" as="geometry" />
        </mxCell>
        <mxCell id="Mt08PbIIcdnvE-Uucdc--195" value="&lt;font style=&quot;font-size: 25px&quot;&gt;项目性质&lt;/font&gt;" style="ellipse;whiteSpace=wrap;html=1;" parent="WIyWlLk6GJQsqaUBKTNV-1" vertex="1">
          <mxGeometry x="2950" y="720" width="120" height="80" as="geometry" />
        </mxCell>
        <mxCell id="Mt08PbIIcdnvE-Uucdc--196" value="&lt;font style=&quot;font-size: 25px&quot;&gt;from&lt;/font&gt;" style="ellipse;whiteSpace=wrap;html=1;" parent="WIyWlLk6GJQsqaUBKTNV-1" vertex="1">
          <mxGeometry x="1910" y="210" width="120" height="80" as="geometry" />
        </mxCell>
        <mxCell id="Mt08PbIIcdnvE-Uucdc--197" value="&lt;font style=&quot;font-size: 25px&quot;&gt;uri&lt;/font&gt;" style="ellipse;whiteSpace=wrap;html=1;" parent="WIyWlLk6GJQsqaUBKTNV-1" vertex="1">
          <mxGeometry x="1740" y="320" width="120" height="80" as="geometry" />
        </mxCell>
        <mxCell id="Mt08PbIIcdnvE-Uucdc--198" value="&lt;font style=&quot;font-size: 25px&quot;&gt;说明&lt;/font&gt;" style="ellipse;whiteSpace=wrap;html=1;" parent="WIyWlLk6GJQsqaUBKTNV-1" vertex="1">
          <mxGeometry x="2570" y="180" width="120" height="80" as="geometry" />
        </mxCell>
        <mxCell id="Mt08PbIIcdnvE-Uucdc--199" value="&lt;font style=&quot;font-size: 25px&quot;&gt;名称&lt;/font&gt;" style="ellipse;whiteSpace=wrap;html=1;" parent="WIyWlLk6GJQsqaUBKTNV-1" vertex="1">
          <mxGeometry x="2350" y="700" width="120" height="80" as="geometry" />
        </mxCell>
        <mxCell id="Mt08PbIIcdnvE-Uucdc--200" value="&lt;font style=&quot;font-size: 25px&quot;&gt;负责人&lt;/font&gt;" style="ellipse;whiteSpace=wrap;html=1;" parent="WIyWlLk6GJQsqaUBKTNV-1" vertex="1">
          <mxGeometry x="2370" y="180" width="120" height="80" as="geometry" />
        </mxCell>
        <mxCell id="Mt08PbIIcdnvE-Uucdc--201" value="&lt;font style=&quot;font-size: 25px&quot;&gt;路径&lt;/font&gt;" style="ellipse;whiteSpace=wrap;html=1;" parent="WIyWlLk6GJQsqaUBKTNV-1" vertex="1">
          <mxGeometry x="2260" y="130" width="120" height="80" as="geometry" />
        </mxCell>
        <mxCell id="Mt08PbIIcdnvE-Uucdc--202" value="&lt;font style=&quot;font-size: 25px&quot;&gt;标签&lt;/font&gt;" style="ellipse;whiteSpace=wrap;html=1;" parent="WIyWlLk6GJQsqaUBKTNV-1" vertex="1">
          <mxGeometry x="2120" y="120" width="120" height="80" as="geometry" />
        </mxCell>
        <mxCell id="Mt08PbIIcdnvE-Uucdc--203" value="&lt;font style=&quot;font-size: 25px&quot;&gt;版本&lt;/font&gt;" style="ellipse;whiteSpace=wrap;html=1;" parent="WIyWlLk6GJQsqaUBKTNV-1" vertex="1">
          <mxGeometry x="2110" y="210" width="120" height="80" as="geometry" />
        </mxCell>
        <mxCell id="Mt08PbIIcdnvE-Uucdc--204" value="&lt;font style=&quot;font-size: 25px&quot;&gt;可见性&lt;/font&gt;" style="ellipse;whiteSpace=wrap;html=1;" parent="WIyWlLk6GJQsqaUBKTNV-1" vertex="1">
          <mxGeometry x="2170" y="290" width="120" height="80" as="geometry" />
        </mxCell>
        <mxCell id="Mt08PbIIcdnvE-Uucdc--205" value="&lt;font style=&quot;font-size: 25px&quot;&gt;目录类别&lt;/font&gt;" style="ellipse;whiteSpace=wrap;html=1;" parent="WIyWlLk6GJQsqaUBKTNV-1" vertex="1">
          <mxGeometry x="2280" y="590" width="120" height="80" as="geometry" />
        </mxCell>
        <mxCell id="Mt08PbIIcdnvE-Uucdc--206" value="&lt;span style=&quot;font-size: 25px&quot;&gt;目录深度&lt;/span&gt;" style="ellipse;whiteSpace=wrap;html=1;" parent="WIyWlLk6GJQsqaUBKTNV-1" vertex="1">
          <mxGeometry x="2100" y="515" width="120" height="80" as="geometry" />
        </mxCell>
        <mxCell id="Mt08PbIIcdnvE-Uucdc--207" value="&lt;font style=&quot;font-size: 25px&quot;&gt;标记&lt;/font&gt;" style="ellipse;whiteSpace=wrap;html=1;" parent="WIyWlLk6GJQsqaUBKTNV-1" vertex="1">
          <mxGeometry x="2680" y="595" width="120" height="80" as="geometry" />
        </mxCell>
        <mxCell id="Mt08PbIIcdnvE-Uucdc--208" value="&lt;font style=&quot;font-size: 25px&quot;&gt;产生日期&lt;/font&gt;" style="ellipse;whiteSpace=wrap;html=1;" parent="WIyWlLk6GJQsqaUBKTNV-1" vertex="1">
          <mxGeometry x="2170" y="430" width="120" height="80" as="geometry" />
        </mxCell>
        <mxCell id="Mt08PbIIcdnvE-Uucdc--209" value="&lt;font style=&quot;font-size: 25px&quot;&gt;附件&lt;/font&gt;" style="ellipse;whiteSpace=wrap;html=1;" parent="WIyWlLk6GJQsqaUBKTNV-1" vertex="1">
          <mxGeometry x="2120" y="610" width="120" height="80" as="geometry" />
        </mxCell>
        <mxCell id="Mt08PbIIcdnvE-Uucdc--210" value="&lt;font style=&quot;font-size: 25px&quot;&gt;类型&lt;/font&gt;" style="ellipse;whiteSpace=wrap;html=1;" parent="WIyWlLk6GJQsqaUBKTNV-1" vertex="1">
          <mxGeometry x="2810" y="310" width="120" height="80" as="geometry" />
        </mxCell>
        <mxCell id="Mt08PbIIcdnvE-Uucdc--211" value="&lt;font style=&quot;font-size: 25px&quot;&gt;审核&lt;/font&gt;" style="ellipse;whiteSpace=wrap;html=1;" parent="WIyWlLk6GJQsqaUBKTNV-1" vertex="1">
          <mxGeometry x="2820" y="610" width="120" height="80" as="geometry" />
        </mxCell>
        <mxCell id="Mt08PbIIcdnvE-Uucdc--212" value="&lt;font style=&quot;font-size: 25px&quot;&gt;编写&lt;/font&gt;" style="ellipse;whiteSpace=wrap;html=1;" parent="WIyWlLk6GJQsqaUBKTNV-1" vertex="1">
          <mxGeometry x="2640" y="700" width="120" height="80" as="geometry" />
        </mxCell>
        <mxCell id="Mt08PbIIcdnvE-Uucdc--213" value="&lt;font style=&quot;font-size: 25px&quot;&gt;校核&lt;/font&gt;" style="ellipse;whiteSpace=wrap;html=1;" parent="WIyWlLk6GJQsqaUBKTNV-1" vertex="1">
          <mxGeometry x="2680" y="130" width="120" height="80" as="geometry" />
        </mxCell>
        <mxCell id="Mt08PbIIcdnvE-Uucdc--214" value="&lt;font style=&quot;font-size: 25px&quot;&gt;关键词&lt;/font&gt;" style="ellipse;whiteSpace=wrap;html=1;" parent="WIyWlLk6GJQsqaUBKTNV-1" vertex="1">
          <mxGeometry x="2820" y="120" width="120" height="80" as="geometry" />
        </mxCell>
        <mxCell id="Mt08PbIIcdnvE-Uucdc--215" value="&lt;font style=&quot;font-size: 25px&quot;&gt;创建时间&lt;/font&gt;" style="ellipse;whiteSpace=wrap;html=1;" parent="WIyWlLk6GJQsqaUBKTNV-1" vertex="1">
          <mxGeometry x="2810" y="410" width="120" height="80" as="geometry" />
        </mxCell>
        <mxCell id="Mt08PbIIcdnvE-Uucdc--216" value="&lt;font style=&quot;font-size: 25px&quot;&gt;更新时间&lt;/font&gt;" style="ellipse;whiteSpace=wrap;html=1;" parent="WIyWlLk6GJQsqaUBKTNV-1" vertex="1">
          <mxGeometry x="2810" y="510" width="120" height="80" as="geometry" />
        </mxCell>
        <mxCell id="Mt08PbIIcdnvE-Uucdc--217" value="&lt;span style=&quot;font-size: 25px&quot;&gt;编号&lt;/span&gt;" style="ellipse;whiteSpace=wrap;html=1;" parent="WIyWlLk6GJQsqaUBKTNV-1" vertex="1">
          <mxGeometry x="2810" y="220" width="120" height="80" as="geometry" />
        </mxCell>
        <mxCell id="Mt08PbIIcdnvE-Uucdc--218" value="&lt;span style=&quot;font-size: 25px&quot;&gt;&amp;nbsp;目录&lt;br&gt;(Directory)&lt;br&gt;&lt;/span&gt;" style="rounded=0;whiteSpace=wrap;html=1;" parent="WIyWlLk6GJQsqaUBKTNV-1" vertex="1">
          <mxGeometry x="2480" y="100" width="120" height="60" as="geometry" />
        </mxCell>
        <mxCell id="Mt08PbIIcdnvE-Uucdc--219" value="&lt;font style=&quot;font-size: 25px&quot;&gt;文件&lt;br&gt;(File)&lt;/font&gt;" style="rounded=0;whiteSpace=wrap;html=1;" parent="WIyWlLk6GJQsqaUBKTNV-1" vertex="1">
          <mxGeometry x="1910" y="330" width="120" height="60" as="geometry" />
        </mxCell>
        <mxCell id="Mt08PbIIcdnvE-Uucdc--220" value="&lt;font style=&quot;font-size: 25px&quot;&gt;项目(Project)&lt;/font&gt;" style="rounded=0;whiteSpace=wrap;html=1;" parent="WIyWlLk6GJQsqaUBKTNV-1" vertex="1">
          <mxGeometry x="1910" y="410" width="120" height="60" as="geometry" />
        </mxCell>
        <mxCell id="Mt08PbIIcdnvE-Uucdc--221" value="&lt;font style=&quot;font-size: 25px&quot;&gt;路径&lt;/font&gt;" style="rounded=0;whiteSpace=wrap;html=1;" parent="WIyWlLk6GJQsqaUBKTNV-1" vertex="1">
          <mxGeometry x="2480" y="370" width="120" height="60" as="geometry" />
        </mxCell>
        <mxCell id="Mt08PbIIcdnvE-Uucdc--222" value="" style="endArrow=none;html=1;entryX=0.25;entryY=0;entryDx=0;entryDy=0;exitX=0.5;exitY=1;exitDx=0;exitDy=0;" parent="WIyWlLk6GJQsqaUBKTNV-1" source="Mt08PbIIcdnvE-Uucdc--200" target="Mt08PbIIcdnvE-Uucdc--221" edge="1">
          <mxGeometry width="50" height="50" relative="1" as="geometry">
            <mxPoint x="2400" y="480" as="sourcePoint" />
            <mxPoint x="2450" y="430" as="targetPoint" />
          </mxGeometry>
        </mxCell>
        <mxCell id="Mt08PbIIcdnvE-Uucdc--223" value="" style="endArrow=none;html=1;entryX=0.5;entryY=1;entryDx=0;entryDy=0;exitX=0;exitY=0;exitDx=0;exitDy=0;" parent="WIyWlLk6GJQsqaUBKTNV-1" source="Mt08PbIIcdnvE-Uucdc--221" target="Mt08PbIIcdnvE-Uucdc--201" edge="1">
          <mxGeometry width="50" height="50" relative="1" as="geometry">
            <mxPoint x="2400" y="480" as="sourcePoint" />
            <mxPoint x="2450" y="430" as="targetPoint" />
          </mxGeometry>
        </mxCell>
        <mxCell id="Mt08PbIIcdnvE-Uucdc--224" value="" style="endArrow=none;html=1;exitX=0.5;exitY=0;exitDx=0;exitDy=0;entryX=0.25;entryY=1;entryDx=0;entryDy=0;" parent="WIyWlLk6GJQsqaUBKTNV-1" source="Mt08PbIIcdnvE-Uucdc--199" target="Mt08PbIIcdnvE-Uucdc--221" edge="1">
          <mxGeometry width="50" height="50" relative="1" as="geometry">
            <mxPoint x="2400" y="480" as="sourcePoint" />
            <mxPoint x="2450" y="430" as="targetPoint" />
          </mxGeometry>
        </mxCell>
        <mxCell id="Mt08PbIIcdnvE-Uucdc--225" value="" style="endArrow=none;html=1;exitX=0.5;exitY=0;exitDx=0;exitDy=0;entryX=0;entryY=1;entryDx=0;entryDy=0;" parent="WIyWlLk6GJQsqaUBKTNV-1" source="Mt08PbIIcdnvE-Uucdc--205" target="Mt08PbIIcdnvE-Uucdc--221" edge="1">
          <mxGeometry width="50" height="50" relative="1" as="geometry">
            <mxPoint x="2400" y="480" as="sourcePoint" />
            <mxPoint x="2450" y="430" as="targetPoint" />
          </mxGeometry>
        </mxCell>
        <mxCell id="Mt08PbIIcdnvE-Uucdc--226" value="" style="endArrow=none;html=1;exitX=1;exitY=0;exitDx=0;exitDy=0;entryX=0;entryY=1;entryDx=0;entryDy=0;" parent="WIyWlLk6GJQsqaUBKTNV-1" source="Mt08PbIIcdnvE-Uucdc--209" target="Mt08PbIIcdnvE-Uucdc--221" edge="1">
          <mxGeometry width="50" height="50" relative="1" as="geometry">
            <mxPoint x="2400" y="480" as="sourcePoint" />
            <mxPoint x="2450" y="430" as="targetPoint" />
          </mxGeometry>
        </mxCell>
        <mxCell id="Mt08PbIIcdnvE-Uucdc--227" value="" style="endArrow=none;html=1;exitX=1;exitY=0.5;exitDx=0;exitDy=0;entryX=0;entryY=1;entryDx=0;entryDy=0;" parent="WIyWlLk6GJQsqaUBKTNV-1" source="Mt08PbIIcdnvE-Uucdc--206" target="Mt08PbIIcdnvE-Uucdc--221" edge="1">
          <mxGeometry width="50" height="50" relative="1" as="geometry">
            <mxPoint x="2400" y="480" as="sourcePoint" />
            <mxPoint x="2450" y="430" as="targetPoint" />
          </mxGeometry>
        </mxCell>
        <mxCell id="Mt08PbIIcdnvE-Uucdc--228" value="" style="endArrow=none;html=1;exitX=1;exitY=0.5;exitDx=0;exitDy=0;entryX=0;entryY=0.5;entryDx=0;entryDy=0;" parent="WIyWlLk6GJQsqaUBKTNV-1" source="Mt08PbIIcdnvE-Uucdc--208" target="Mt08PbIIcdnvE-Uucdc--221" edge="1">
          <mxGeometry width="50" height="50" relative="1" as="geometry">
            <mxPoint x="2400" y="480" as="sourcePoint" />
            <mxPoint x="2460" y="420" as="targetPoint" />
          </mxGeometry>
        </mxCell>
        <mxCell id="Mt08PbIIcdnvE-Uucdc--229" value="" style="endArrow=none;html=1;exitX=1;exitY=0.5;exitDx=0;exitDy=0;entryX=0;entryY=0.5;entryDx=0;entryDy=0;" parent="WIyWlLk6GJQsqaUBKTNV-1" source="Mt08PbIIcdnvE-Uucdc--204" target="Mt08PbIIcdnvE-Uucdc--221" edge="1">
          <mxGeometry width="50" height="50" relative="1" as="geometry">
            <mxPoint x="2400" y="480" as="sourcePoint" />
            <mxPoint x="2450" y="430" as="targetPoint" />
          </mxGeometry>
        </mxCell>
        <mxCell id="Mt08PbIIcdnvE-Uucdc--230" value="" style="endArrow=none;html=1;exitX=1.008;exitY=0.6;exitDx=0;exitDy=0;exitPerimeter=0;entryX=0;entryY=0;entryDx=0;entryDy=0;" parent="WIyWlLk6GJQsqaUBKTNV-1" source="Mt08PbIIcdnvE-Uucdc--203" target="Mt08PbIIcdnvE-Uucdc--221" edge="1">
          <mxGeometry width="50" height="50" relative="1" as="geometry">
            <mxPoint x="2400" y="480" as="sourcePoint" />
            <mxPoint x="2450" y="430" as="targetPoint" />
          </mxGeometry>
        </mxCell>
        <mxCell id="Mt08PbIIcdnvE-Uucdc--231" value="" style="endArrow=none;html=1;exitX=1;exitY=1;exitDx=0;exitDy=0;entryX=0;entryY=0;entryDx=0;entryDy=0;" parent="WIyWlLk6GJQsqaUBKTNV-1" source="Mt08PbIIcdnvE-Uucdc--202" target="Mt08PbIIcdnvE-Uucdc--221" edge="1">
          <mxGeometry width="50" height="50" relative="1" as="geometry">
            <mxPoint x="2400" y="480" as="sourcePoint" />
            <mxPoint x="2450" y="430" as="targetPoint" />
          </mxGeometry>
        </mxCell>
        <mxCell id="Mt08PbIIcdnvE-Uucdc--232" value="" style="endArrow=none;html=1;exitX=0;exitY=0.5;exitDx=0;exitDy=0;" parent="WIyWlLk6GJQsqaUBKTNV-1" source="Mt08PbIIcdnvE-Uucdc--217" edge="1">
          <mxGeometry width="50" height="50" relative="1" as="geometry">
            <mxPoint x="2510" y="480" as="sourcePoint" />
            <mxPoint x="2600" y="370" as="targetPoint" />
          </mxGeometry>
        </mxCell>
        <mxCell id="Mt08PbIIcdnvE-Uucdc--233" value="" style="endArrow=none;html=1;exitX=0;exitY=1;exitDx=0;exitDy=0;entryX=1;entryY=0;entryDx=0;entryDy=0;" parent="WIyWlLk6GJQsqaUBKTNV-1" source="Mt08PbIIcdnvE-Uucdc--214" target="Mt08PbIIcdnvE-Uucdc--221" edge="1">
          <mxGeometry width="50" height="50" relative="1" as="geometry">
            <mxPoint x="2510" y="480" as="sourcePoint" />
            <mxPoint x="2560" y="430" as="targetPoint" />
          </mxGeometry>
        </mxCell>
        <mxCell id="Mt08PbIIcdnvE-Uucdc--234" value="" style="endArrow=none;html=1;exitX=0.45;exitY=0.988;exitDx=0;exitDy=0;exitPerimeter=0;entryX=1;entryY=0;entryDx=0;entryDy=0;" parent="WIyWlLk6GJQsqaUBKTNV-1" source="Mt08PbIIcdnvE-Uucdc--213" target="Mt08PbIIcdnvE-Uucdc--221" edge="1">
          <mxGeometry width="50" height="50" relative="1" as="geometry">
            <mxPoint x="2510" y="480" as="sourcePoint" />
            <mxPoint x="2560" y="430" as="targetPoint" />
          </mxGeometry>
        </mxCell>
        <mxCell id="Mt08PbIIcdnvE-Uucdc--235" value="" style="endArrow=none;html=1;exitX=0.5;exitY=1;exitDx=0;exitDy=0;entryX=0.75;entryY=0;entryDx=0;entryDy=0;" parent="WIyWlLk6GJQsqaUBKTNV-1" source="Mt08PbIIcdnvE-Uucdc--198" target="Mt08PbIIcdnvE-Uucdc--221" edge="1">
          <mxGeometry width="50" height="50" relative="1" as="geometry">
            <mxPoint x="2510" y="480" as="sourcePoint" />
            <mxPoint x="2560" y="430" as="targetPoint" />
          </mxGeometry>
        </mxCell>
        <mxCell id="Mt08PbIIcdnvE-Uucdc--236" value="" style="endArrow=none;html=1;exitX=0;exitY=0;exitDx=0;exitDy=0;entryX=1;entryY=1;entryDx=0;entryDy=0;" parent="WIyWlLk6GJQsqaUBKTNV-1" source="Mt08PbIIcdnvE-Uucdc--211" target="Mt08PbIIcdnvE-Uucdc--221" edge="1">
          <mxGeometry width="50" height="50" relative="1" as="geometry">
            <mxPoint x="2510" y="480" as="sourcePoint" />
            <mxPoint x="2560" y="430" as="targetPoint" />
          </mxGeometry>
        </mxCell>
        <mxCell id="Mt08PbIIcdnvE-Uucdc--237" value="" style="endArrow=none;html=1;exitX=0;exitY=0.5;exitDx=0;exitDy=0;entryX=1;entryY=1;entryDx=0;entryDy=0;" parent="WIyWlLk6GJQsqaUBKTNV-1" source="Mt08PbIIcdnvE-Uucdc--216" target="Mt08PbIIcdnvE-Uucdc--221" edge="1">
          <mxGeometry width="50" height="50" relative="1" as="geometry">
            <mxPoint x="2510" y="480" as="sourcePoint" />
            <mxPoint x="2560" y="430" as="targetPoint" />
          </mxGeometry>
        </mxCell>
        <mxCell id="Mt08PbIIcdnvE-Uucdc--238" value="" style="endArrow=none;html=1;exitX=0.5;exitY=0;exitDx=0;exitDy=0;entryX=1;entryY=1;entryDx=0;entryDy=0;" parent="WIyWlLk6GJQsqaUBKTNV-1" source="Mt08PbIIcdnvE-Uucdc--207" target="Mt08PbIIcdnvE-Uucdc--221" edge="1">
          <mxGeometry width="50" height="50" relative="1" as="geometry">
            <mxPoint x="2510" y="480" as="sourcePoint" />
            <mxPoint x="2560" y="430" as="targetPoint" />
          </mxGeometry>
        </mxCell>
        <mxCell id="Mt08PbIIcdnvE-Uucdc--239" value="" style="endArrow=none;html=1;entryX=0.75;entryY=1;entryDx=0;entryDy=0;" parent="WIyWlLk6GJQsqaUBKTNV-1" source="Mt08PbIIcdnvE-Uucdc--212" target="Mt08PbIIcdnvE-Uucdc--221" edge="1">
          <mxGeometry width="50" height="50" relative="1" as="geometry">
            <mxPoint x="2510" y="480" as="sourcePoint" />
            <mxPoint x="2560" y="430" as="targetPoint" />
          </mxGeometry>
        </mxCell>
        <mxCell id="Mt08PbIIcdnvE-Uucdc--240" value="" style="endArrow=none;html=1;exitX=0;exitY=0.5;exitDx=0;exitDy=0;entryX=1;entryY=0.25;entryDx=0;entryDy=0;" parent="WIyWlLk6GJQsqaUBKTNV-1" source="Mt08PbIIcdnvE-Uucdc--210" target="Mt08PbIIcdnvE-Uucdc--221" edge="1">
          <mxGeometry width="50" height="50" relative="1" as="geometry">
            <mxPoint x="2510" y="480" as="sourcePoint" />
            <mxPoint x="2560" y="430" as="targetPoint" />
          </mxGeometry>
        </mxCell>
        <mxCell id="Mt08PbIIcdnvE-Uucdc--241" value="" style="endArrow=none;html=1;exitX=0;exitY=0.5;exitDx=0;exitDy=0;entryX=1;entryY=0.5;entryDx=0;entryDy=0;" parent="WIyWlLk6GJQsqaUBKTNV-1" source="Mt08PbIIcdnvE-Uucdc--215" target="Mt08PbIIcdnvE-Uucdc--221" edge="1">
          <mxGeometry width="50" height="50" relative="1" as="geometry">
            <mxPoint x="2510" y="480" as="sourcePoint" />
            <mxPoint x="2560" y="430" as="targetPoint" />
          </mxGeometry>
        </mxCell>
        <mxCell id="Mt08PbIIcdnvE-Uucdc--242" value="" style="endArrow=none;html=1;exitX=0;exitY=0.5;exitDx=0;exitDy=0;entryX=1;entryY=0.5;entryDx=0;entryDy=0;" parent="WIyWlLk6GJQsqaUBKTNV-1" source="Mt08PbIIcdnvE-Uucdc--221" target="Mt08PbIIcdnvE-Uucdc--220" edge="1">
          <mxGeometry width="50" height="50" relative="1" as="geometry">
            <mxPoint x="2510" y="480" as="sourcePoint" />
            <mxPoint x="2080" y="390" as="targetPoint" />
          </mxGeometry>
        </mxCell>
        <mxCell id="Mt08PbIIcdnvE-Uucdc--243" value="" style="endArrow=none;html=1;entryX=1;entryY=0.5;entryDx=0;entryDy=0;exitX=0;exitY=0.5;exitDx=0;exitDy=0;" parent="WIyWlLk6GJQsqaUBKTNV-1" source="Mt08PbIIcdnvE-Uucdc--219" target="Mt08PbIIcdnvE-Uucdc--197" edge="1">
          <mxGeometry width="50" height="50" relative="1" as="geometry">
            <mxPoint x="2070" y="450" as="sourcePoint" />
            <mxPoint x="2120" y="400" as="targetPoint" />
          </mxGeometry>
        </mxCell>
        <mxCell id="Mt08PbIIcdnvE-Uucdc--244" value="" style="endArrow=none;html=1;entryX=0.5;entryY=1;entryDx=0;entryDy=0;exitX=0.5;exitY=0;exitDx=0;exitDy=0;" parent="WIyWlLk6GJQsqaUBKTNV-1" source="Mt08PbIIcdnvE-Uucdc--219" target="Mt08PbIIcdnvE-Uucdc--196" edge="1">
          <mxGeometry width="50" height="50" relative="1" as="geometry">
            <mxPoint x="2070" y="450" as="sourcePoint" />
            <mxPoint x="2120" y="400" as="targetPoint" />
          </mxGeometry>
        </mxCell>
        <mxCell id="Mt08PbIIcdnvE-Uucdc--245" value="" style="endArrow=none;html=1;entryX=1;entryY=0.5;entryDx=0;entryDy=0;exitX=0;exitY=0.5;exitDx=0;exitDy=0;" parent="WIyWlLk6GJQsqaUBKTNV-1" source="Mt08PbIIcdnvE-Uucdc--221" target="Mt08PbIIcdnvE-Uucdc--219" edge="1">
          <mxGeometry width="50" height="50" relative="1" as="geometry">
            <mxPoint x="2070" y="450" as="sourcePoint" />
            <mxPoint x="2120" y="400" as="targetPoint" />
          </mxGeometry>
        </mxCell>
        <mxCell id="Mt08PbIIcdnvE-Uucdc--246" value="&lt;font style=&quot;font-size: 25px&quot;&gt;关联&lt;/font&gt;" style="rhombus;whiteSpace=wrap;html=1;" parent="WIyWlLk6GJQsqaUBKTNV-1" vertex="1">
          <mxGeometry x="2454" y="620" width="80" height="80" as="geometry" />
        </mxCell>
        <mxCell id="Mt08PbIIcdnvE-Uucdc--247" value="&lt;font style=&quot;font-size: 25px&quot;&gt;关联&lt;/font&gt;" style="rhombus;whiteSpace=wrap;html=1;" parent="WIyWlLk6GJQsqaUBKTNV-1" vertex="1">
          <mxGeometry x="2560" y="620" width="80" height="80" as="geometry" />
        </mxCell>
        <mxCell id="Mt08PbIIcdnvE-Uucdc--248" value="" style="endArrow=none;html=1;entryX=0.5;entryY=1;entryDx=0;entryDy=0;exitX=0.5;exitY=0;exitDx=0;exitDy=0;" parent="WIyWlLk6GJQsqaUBKTNV-1" source="Mt08PbIIcdnvE-Uucdc--247" target="Mt08PbIIcdnvE-Uucdc--221" edge="1">
          <mxGeometry width="50" height="50" relative="1" as="geometry">
            <mxPoint x="2470" y="610" as="sourcePoint" />
            <mxPoint x="2520" y="560" as="targetPoint" />
          </mxGeometry>
        </mxCell>
        <mxCell id="Mt08PbIIcdnvE-Uucdc--249" value="" style="endArrow=none;html=1;entryX=0.5;entryY=1;entryDx=0;entryDy=0;exitX=0.5;exitY=0;exitDx=0;exitDy=0;" parent="WIyWlLk6GJQsqaUBKTNV-1" source="Mt08PbIIcdnvE-Uucdc--246" target="Mt08PbIIcdnvE-Uucdc--221" edge="1">
          <mxGeometry width="50" height="50" relative="1" as="geometry">
            <mxPoint x="2470" y="610" as="sourcePoint" />
            <mxPoint x="2520" y="560" as="targetPoint" />
          </mxGeometry>
        </mxCell>
        <mxCell id="Mt08PbIIcdnvE-Uucdc--250" value="" style="endArrow=none;html=1;exitX=0.5;exitY=0;exitDx=0;exitDy=0;entryX=0.5;entryY=1;entryDx=0;entryDy=0;" parent="WIyWlLk6GJQsqaUBKTNV-1" source="Mt08PbIIcdnvE-Uucdc--251" target="Mt08PbIIcdnvE-Uucdc--218" edge="1">
          <mxGeometry width="50" height="50" relative="1" as="geometry">
            <mxPoint x="2470" y="450" as="sourcePoint" />
            <mxPoint x="2520" y="400" as="targetPoint" />
          </mxGeometry>
        </mxCell>
        <mxCell id="Mt08PbIIcdnvE-Uucdc--251" value="&lt;font style=&quot;font-size: 25px&quot;&gt;关联&lt;/font&gt;" style="rhombus;whiteSpace=wrap;html=1;" parent="WIyWlLk6GJQsqaUBKTNV-1" vertex="1">
          <mxGeometry x="2520" y="250" width="80" height="80" as="geometry" />
        </mxCell>
        <mxCell id="Mt08PbIIcdnvE-Uucdc--252" value="" style="endArrow=classic;html=1;exitX=0.25;exitY=1;exitDx=0;exitDy=0;entryX=0.25;entryY=0;entryDx=0;entryDy=0;" parent="WIyWlLk6GJQsqaUBKTNV-1" source="Mt08PbIIcdnvE-Uucdc--218" target="Mt08PbIIcdnvE-Uucdc--221" edge="1">
          <mxGeometry width="50" height="50" relative="1" as="geometry">
            <mxPoint x="2370" y="470" as="sourcePoint" />
            <mxPoint x="2420" y="420" as="targetPoint" />
          </mxGeometry>
        </mxCell>
        <mxCell id="Mt08PbIIcdnvE-Uucdc--253" value="" style="endArrow=none;html=1;entryX=0.5;entryY=1;entryDx=0;entryDy=0;exitX=0.5;exitY=0;exitDx=0;exitDy=0;" parent="WIyWlLk6GJQsqaUBKTNV-1" source="Mt08PbIIcdnvE-Uucdc--221" target="Mt08PbIIcdnvE-Uucdc--251" edge="1">
          <mxGeometry width="50" height="50" relative="1" as="geometry">
            <mxPoint x="2370" y="470" as="sourcePoint" />
            <mxPoint x="2420" y="420" as="targetPoint" />
          </mxGeometry>
        </mxCell>
        <mxCell id="Mt08PbIIcdnvE-Uucdc--254" value="&lt;font style=&quot;font-size: 25px&quot;&gt;from&lt;/font&gt;" style="ellipse;whiteSpace=wrap;html=1;" parent="WIyWlLk6GJQsqaUBKTNV-1" vertex="1">
          <mxGeometry x="2630" y="20" width="120" height="80" as="geometry" />
        </mxCell>
        <mxCell id="Mt08PbIIcdnvE-Uucdc--255" value="" style="endArrow=none;html=1;exitX=1;exitY=0;exitDx=0;exitDy=0;entryX=0;entryY=1;entryDx=0;entryDy=0;" parent="WIyWlLk6GJQsqaUBKTNV-1" source="Mt08PbIIcdnvE-Uucdc--218" target="Mt08PbIIcdnvE-Uucdc--254" edge="1">
          <mxGeometry width="50" height="50" relative="1" as="geometry">
            <mxPoint x="2380" y="380" as="sourcePoint" />
            <mxPoint x="2430" y="330" as="targetPoint" />
          </mxGeometry>
        </mxCell>
      </root>
    </mxGraphModel>
  </diagram>
</mxfile>
